<svg xmlns="http://www.w3.org/2000/svg" xmlns:xlink="http://www.w3.org/1999/xlink" width="772" height="450" viewBox="0 0 772 450">
  <defs>
    <linearGradient id="linear-gradient" x1="0.098" y1="0.832" x2="0.984" y2="-0.033" gradientUnits="objectBoundingBox">
      <stop offset="0" stop-color="#7e1d42"/>
      <stop offset="1" stop-color="#5a1a1a"/>
    </linearGradient>
    <linearGradient id="linear-gradient-10" x1="49.6" y1="132.683" x2="48.543" y2="132.852" gradientUnits="objectBoundingBox">
      <stop offset="0" stop-color="#fc5653"/>
      <stop offset="1" stop-color="#fc0053"/>
    </linearGradient>
    <linearGradient id="linear-gradient-11" x1="5.923" y1="0.283" x2="4.911" y2="1.216" gradientUnits="objectBoundingBox">
      <stop offset="0" stop-color="#ef248d"/>
      <stop offset="1" stop-color="#893f94"/>
    </linearGradient>
    <linearGradient id="linear-gradient-12" x1="7.977" y1="0.739" x2="8.776" y2="0.621" xlink:href="#linear-gradient-11"/>
    <linearGradient id="linear-gradient-13" x1="26.817" y1="0.858" x2="27.563" y2="0.85" xlink:href="#linear-gradient-11"/>
    <linearGradient id="linear-gradient-14" x1="186.169" y1="181.591" x2="185.112" y2="181.76" xlink:href="#linear-gradient-10"/>
    <radialGradient id="radial-gradient" cx="0.5" cy="0.5" r="2.465" gradientTransform="matrix(-0.145, 0, 0, 1, 3.399, 0)" gradientUnits="objectBoundingBox">
      <stop offset="0.07" stop-color="#ffdf8c"/>
      <stop offset="1" stop-color="#ffbf73"/>
    </radialGradient>
    <radialGradient id="radial-gradient-2" cx="0.5" cy="-0.133" r="5.589" gradientTransform="matrix(-0.064, 0, 0, 1, 3.158, 0)" xlink:href="#radial-gradient"/>
    <linearGradient id="linear-gradient-15" x1="1.873" y1="0.029" x2="1.873" y2="0.997" gradientUnits="objectBoundingBox">
      <stop offset="0" stop-color="#f86c13"/>
      <stop offset="1" stop-color="#ef248d"/>
    </linearGradient>
    <linearGradient id="linear-gradient-16" x1="-1.09" y1="0.029" x2="-1.09" y2="0.997" xlink:href="#linear-gradient-11"/>
    <linearGradient id="linear-gradient-17" x1="0.67" y1="-0.102" x2="0.365" y2="1.456" gradientUnits="objectBoundingBox">
      <stop offset="0" stop-color="#56b8d6"/>
      <stop offset="0.198" stop-color="#5a71d7"/>
      <stop offset="0.984" stop-color="#1637a2"/>
    </linearGradient>
    <linearGradient id="linear-gradient-18" x1="0.512" y1="-1.048" x2="0.503" y2="0.332" xlink:href="#linear-gradient-17"/>
    <linearGradient id="linear-gradient-19" x1="0.955" y1="0.112" x2="0.279" y2="0.743" gradientUnits="objectBoundingBox">
      <stop offset="0" stop-color="#56b8d6"/>
      <stop offset="0.77" stop-color="#5a71d7"/>
    </linearGradient>
    <linearGradient id="linear-gradient-20" x1="0.37" y1="0.993" x2="0.861" y2="0.03" gradientUnits="objectBoundingBox">
      <stop offset="0" stop-color="#d65656"/>
      <stop offset="0.77" stop-color="#d82222"/>
      <stop offset="1" stop-color="#d91010"/>
    </linearGradient>
    <linearGradient id="linear-gradient-22" x1="276.816" y1="-88.272" x2="275.859" y2="-88.132" xlink:href="#linear-gradient-10"/>
    <linearGradient id="linear-gradient-23" x1="0.765" y1="0.226" x2="0.201" y2="0.887" gradientUnits="objectBoundingBox">
      <stop offset="0" stop-color="#de4141"/>
      <stop offset="0.77" stop-color="#d75a5a"/>
      <stop offset="1" stop-color="#ff0d0d"/>
    </linearGradient>
    <linearGradient id="linear-gradient-24" x1="0.427" y1="0.894" x2="0.674" y2="-0.019" gradientUnits="objectBoundingBox">
      <stop offset="0" stop-color="#c42020"/>
      <stop offset="0.77" stop-color="#de1f10"/>
      <stop offset="1" stop-color="#ef0424"/>
    </linearGradient>
    <linearGradient id="linear-gradient-25" x1="0.918" y1="0.052" x2="0.286" y2="0.721" xlink:href="#linear-gradient-15"/>
    <clipPath id="clip-hero">
      <rect width="772" height="450"/>
    </clipPath>
  </defs>
  <g id="hero" clip-path="url(#clip-hero)">
    <rect width="772" height="450" fill="#fff"/>
    <g id="Group_2" data-name="Group 2" transform="translate(-140)">
      <path id="Path_133" data-name="Path 133" d="M0,0H912V450H0Z" fill="#fff"/>
      <g id="Group_1" data-name="Group 1" transform="translate(476)">
        <path id="Path_1" data-name="Path 1" d="M267.273,22.516C240.62,46.295,189.289,96.033,202.3,137.04c3.453,10.883,12.82,18.771,22.37,25.03,22.805,14.946,50.239,25.2,65.506,47.792,14.706,21.761,14.63,50.269,10.273,76.17-4.225,25.118-11.8,51.723-2.027,75.243,10.163,24.45,36.6,38.245,62.457,43.949,35.872,7.914,74.06,3.1,107.451-11.932,35.185-15.835,63.064-45.18,89.519-72.524,10.341-10.689,20.045-21.839,30.947-31.7,6.131-5.546,13.346-11.822,21.2-16.651V0H293.947C285.132,7.166,276.1,14.641,267.273,22.516Z" transform="translate(-174)" fill="url(#linear-gradient)"/>
        <path id="Path_2" data-name="Path 2" d="M610,259.29V219.47a3.515,3.515,0,0,0-.911,2.309v2.492a1.655,1.655,0,0,1-.162-.064c-.029-.013-.057-.029-.085-.044a1.572,1.572,0,0,1-.139-.08c-.027-.017-.053-.036-.079-.054-.043-.032-.085-.064-.125-.1-.022-.019-.045-.039-.067-.06a1.648,1.648,0,0,1-.117-.12c-.018-.02-.036-.039-.053-.059-.041-.05-.08-.1-.117-.154-.011-.016-.023-.03-.033-.046a2.817,2.817,0,0,1-.252-.466,5.421,5.421,0,0,1-.38-1.683c-.016-.188-.024-.372-.029-.551a8.116,8.116,0,0,0,.984-1.172,7.153,7.153,0,0,0,.732-1.822c.037-.01.069-.014.111-.029a1.582,1.582,0,0,0,.722-.608V208.6a3.594,3.594,0,0,0-1.254-1.431l1.23-.547c-1.066-.711-2.771-.182-3.13-.205l1.3-.834c-1.708-.451-2.5.5-3.63.535h0l1.143-1.013a5.455,5.455,0,0,0-3.318,1.255c-2.28.55-3.9,2.048-3.9,4.631a14.745,14.745,0,0,0,.354,2.973c.015.088.031.175.049.261a.526.526,0,0,0-.216.028c-.465.162-.235,3,1.123,3.514a1.142,1.142,0,0,0,.111.029,7.115,7.115,0,0,0,.732,1.822,8.066,8.066,0,0,0,.983,1.167c0,.179-.012.362-.028.551a5.459,5.459,0,0,1-.38,1.688,2.944,2.944,0,0,1-.251.464c-.012.018-.025.034-.037.051-.036.051-.073.1-.113.149-.018.022-.037.042-.056.062-.036.041-.075.081-.114.118l-.069.062c-.04.034-.081.066-.124.1l-.079.055c-.045.029-.092.055-.139.08-.029.015-.056.031-.085.044a1.773,1.773,0,0,1-.168.066c-.026.01-.052.021-.079.029a1.928,1.928,0,0,1-.272.064l-.071.012v-2.6a3.789,3.789,0,0,0-1.616-2.97c-.006-.165-.012-.335-.02-.49-.056-1.063-.858-1.7-1.946-2.118a19.459,19.459,0,0,0-3.663-.818c-.058-.009-.111-.024-.166-.038v0l-.5-.546a16.088,16.088,0,0,0,2.391-1.091c-.907-.88-.6-7.85-.6-9.265a5.562,5.562,0,0,0-5.608-5.274h0a5.562,5.562,0,0,0-5.608,5.274c0,.4.054,1.141.1,2.045a3.094,3.094,0,0,0,.055,1.232c.069,2.123,0,4.646-.758,5.988a15.34,15.34,0,0,0,2.356,1.1l-.488.537v.008c-.046.011-.09.025-.138.032a19.441,19.441,0,0,0-3.663.818c-1.088.419-1.891,1.055-1.947,2.118,0,.036,0,.079,0,.116a4,4,0,0,0-2.164,3.344v2.492a1.674,1.674,0,0,1-.163-.064c-.029-.013-.056-.029-.084-.044-.048-.025-.095-.051-.14-.08-.027-.017-.052-.036-.078-.054-.043-.032-.085-.064-.125-.1-.023-.019-.045-.039-.067-.059-.041-.039-.08-.079-.118-.121l-.052-.059c-.042-.05-.081-.1-.118-.155-.011-.015-.022-.029-.032-.044a2.944,2.944,0,0,1-.253-.467,5.477,5.477,0,0,1-.38-1.683c0-.017,0-.032,0-.049a6.821,6.821,0,0,0,.928-1.468,7.153,7.153,0,0,0,.663-1.647l-.018.012c.041-.13.081-.261.116-.393.037-.01.07-.014.112-.029,1.357-.51,1.587-3.352,1.123-3.514a.532.532,0,0,0-.213-.028,8.032,8.032,0,0,0,.148-1.205.7.7,0,0,0-.084-1.38v-.009a.965.965,0,0,0-.111-1.888.951.951,0,0,0,.265-.652,1,1,0,0,0-.961-.977.89.89,0,0,0,.155-.5.955.955,0,0,0-.978-.929,1.012,1.012,0,0,0-.42.093.824.824,0,0,0,.015-.142.905.905,0,0,0-.927-.881.557.557,0,1,1-.814.362.954.954,0,0,0-.978-.929.988.988,0,0,1-1.919,0,.9.9,0,0,0-.964,1.06.928.928,0,0,0-.828-.493.905.905,0,0,0-.927.881.823.823,0,0,0,.016.142,1.017,1.017,0,0,0-.421-.093.955.955,0,0,0-.978.929.882.882,0,0,0,.144.479l-.016.023a1,1,0,0,0-.934.974.943.943,0,0,0,.235.617l-.012.046a.962.962,0,0,0-.119,1.862v.029a.694.694,0,0,0-.09,1.359c0,.035,0,.071,0,.106a8.41,8.41,0,0,0,.155,1.115.529.529,0,0,0-.216.028c-.465.162-.234,3,1.123,3.514.042.015.074.019.111.029.035.129.074.256.113.383l0,0a7.226,7.226,0,0,0,.663,1.647,6.844,6.844,0,0,0,.917,1.454c0,.02,0,.038,0,.058a5.43,5.43,0,0,1-.381,1.688,2.858,2.858,0,0,1-.25.464c-.012.018-.025.034-.037.051-.036.051-.074.1-.114.149a.809.809,0,0,1-.055.062c-.037.041-.075.081-.115.118-.022.021-.045.042-.069.062s-.081.066-.123.1l-.079.055c-.045.029-.092.055-.14.08-.028.015-.055.031-.084.044-.054.025-.111.046-.168.066-.027.01-.052.021-.079.029a1.93,1.93,0,0,1-.272.064l-.072.012v-2.6a3.894,3.894,0,0,0-1.89-3.167c0-.1,0-.206-.005-.3,0-.194-.008-.38-.012-.557-.009-.355-.021-.673-.035-.937a2.133,2.133,0,0,0-1.207-1.761c.3-5.779-1.554-16.689-8.842-16.689-6.845,0-9.038,10.931-8.756,16.644a2.173,2.173,0,0,0-1.293,1.806c-.014.264-.025.582-.034.937-.007.267-.013.56-.017.861a5.06,5.06,0,0,0-.519.4,5.56,5.56,0,0,0-1.04-1.264c.939-.469,1.293-2.077,1.222-2.93a4.583,4.583,0,0,0,.489-2.045c0-3-2.971-5.44-6.638-5.44s-6.637,2.436-6.637,5.44a4.6,4.6,0,0,0,.524,2.122c-.044.862.307,2.369,1.2,2.84a5.507,5.507,0,0,0-1.187,1.521,4.847,4.847,0,0,0-.456-.408c0-.236,0-.475,0-.7-.01-1.023-.028-1.949-.06-2.547a1.938,1.938,0,0,0-.174-.72,3.811,3.811,0,0,0-2.635-1.674c-.9-.243-1.9-.394-2.8-.54a1.84,1.84,0,0,1-.246-.058c-.026-.008-.049-.018-.074-.027-.051-.018-.1-.037-.15-.059-.027-.013-.052-.027-.078-.041-.043-.023-.086-.046-.126-.072-.025-.016-.048-.033-.072-.05-.039-.028-.076-.057-.112-.088s-.042-.037-.063-.056c-.036-.034-.071-.07-.1-.107l-.051-.056q-.054-.066-.1-.135c-.011-.016-.023-.03-.034-.046a2.739,2.739,0,0,1-.228-.421,4.91,4.91,0,0,1-.345-1.531c-.015-.171-.022-.337-.026-.5a7.424,7.424,0,0,0,.894-1.058,6.472,6.472,0,0,0,.664-1.652.726.726,0,0,0,.1-.027,1.3,1.3,0,0,0,.5-.352c.772-.216,1.256-.524,1.243-.939-.075-2.494.011-2.606.011-3.474A6.122,6.122,0,0,0,520.666,196h0a6.122,6.122,0,0,0-6.078,5.914,19.694,19.694,0,0,1,.179,3.295c-.009.269.287.509.789.714a1.573,1.573,0,0,0,.784.756.767.767,0,0,0,.1.027,6.474,6.474,0,0,0,.664,1.652,7.462,7.462,0,0,0,.894,1.062c0,.162-.012.329-.026.5a4.914,4.914,0,0,1-.346,1.527,2.536,2.536,0,0,1-.228.421c-.01.015-.02.028-.03.042-.034.048-.069.094-.106.139-.016.019-.032.036-.049.054-.034.038-.069.074-.106.109l-.061.055c-.037.031-.074.06-.114.088-.023.017-.046.034-.071.05-.04.026-.083.05-.126.073-.026.013-.051.027-.077.039a1.553,1.553,0,0,1-.152.06c-.024.009-.048.019-.073.027a1.84,1.84,0,0,1-.246.058c-2.1.342-4.734.706-5.434,2.214a1.921,1.921,0,0,0-.175.72c-.031.6-.05,1.524-.059,2.547,0,.106,0,.218,0,.326a3.978,3.978,0,0,0-2.108,3.313v1.184a2.017,2.017,0,0,1-1.3-1.05c.034-.134.012-.253-.072-.3V220.06a.719.719,0,0,0-.1-.368l0,0-.015-.023c-.008-.013-.017-.025-.026-.037a.612.612,0,0,0-.285-.24,8.016,8.016,0,0,0,.959-1.145,7.136,7.136,0,0,0,.736-1.83.978.978,0,0,0,.112-.029c1.366-.512,1.6-3.366,1.13-3.529a.556.556,0,0,0-.214-.029,7.713,7.713,0,0,0,.153-1.347c0-.075,0-.163-.007-.263s.007-.215.007-.326a5.85,5.85,0,0,0-5.862-5.84h0a5.85,5.85,0,0,0-5.862,5.84c0,.051,0,.1,0,.15a5.937,5.937,0,0,0,0,.667,8.328,8.328,0,0,0,.156,1.12.531.531,0,0,0-.217.028c-.468.163-.236,3.017,1.129,3.529a.978.978,0,0,0,.112.029,7.136,7.136,0,0,0,.737,1.83,7.9,7.9,0,0,0,.966,1.148.729.729,0,0,0-.259.2.524.524,0,0,0-.037.045q-.015.021-.027.042l-.013.019v0a.727.727,0,0,0-.1.362v1.553a.315.315,0,0,0-.1.341,2,2,0,0,1-1.279,1.01v-1.185a3.775,3.775,0,0,0-1.574-2.936c-.009-1.094-.027-2.113-.062-2.77-.056-1.063-.858-1.7-1.946-2.118a10.913,10.913,0,0,0-1.61-.454,91.439,91.439,0,0,1-.15-9.492,6.574,6.574,0,0,0-6.383-6.5h0a6.574,6.574,0,0,0-6.383,6.5c0,1.417.506,6.23-.08,9.477-.12.025-.24.051-.358.078a9.919,9.919,0,0,0-1.321.391,3.185,3.185,0,0,0-1.682,1.244c.045-.832.084-1.509.084-1.922a7.3,7.3,0,0,0-7.092-7.222h0c-4.462-.464-8.776,2.212-7.092,7.222a5.765,5.765,0,0,1,.194,1.26c-.951-1.162-3.264-1.49-5.15-1.8a1.786,1.786,0,0,1-1.306-.953.284.284,0,0,0-.088-.307v-1.4a.658.658,0,0,0-.089-.326h0l-.011-.018c-.008-.012-.016-.025-.025-.037a.42.42,0,0,0-.033-.041.654.654,0,0,0-.233-.177,7.283,7.283,0,0,0,.87-1.033,6.435,6.435,0,0,0,.662-1.647.936.936,0,0,0,.1-.026c1.229-.461,1.438-3.029,1.017-3.176a.481.481,0,0,0-.2-.026,7.4,7.4,0,0,0,.14-1.008,5.213,5.213,0,0,0,0-.6c0-.046,0-.09,0-.136a5.265,5.265,0,0,0-5.275-5.256h0a5.266,5.266,0,0,0-5.275,5.256c0,.1,0,.2.007.294s-.007.169-.007.237a6.815,6.815,0,0,0,.138,1.212.467.467,0,0,0-.193.026c-.421.147-.212,2.715,1.017,3.176a.937.937,0,0,0,.1.026,6.435,6.435,0,0,0,.662,1.647,7.2,7.2,0,0,0,.863,1.03.55.55,0,0,0-.256.216l-.024.034-.013.02v0a.655.655,0,0,0-.092.331v1.4c-.076.042-.1.149-.065.27a1.8,1.8,0,0,1-1.328.99c-2.393.391-5.481.808-5.593,2.926-.032.607-.05,1.582-.059,2.664a4.068,4.068,0,0,0-2.355,3.45v1.086c-.041-.015-.083-.03-.122-.048s-.057-.029-.085-.044c-.048-.025-.1-.052-.141-.081-.027-.017-.053-.036-.079-.055-.043-.031-.086-.064-.126-.1-.023-.019-.046-.039-.068-.06-.041-.039-.08-.079-.118-.121-.018-.02-.037-.04-.054-.06-.041-.05-.08-.1-.118-.155-.011-.015-.023-.03-.033-.046a2.852,2.852,0,0,1-.254-.469,5.477,5.477,0,0,1-.384-1.7c-.016-.19-.024-.375-.029-.555a8.19,8.19,0,0,0,.993-1.181,7.191,7.191,0,0,0,.738-1.835.955.955,0,0,0,.113-.03,1.75,1.75,0,0,0,.871-.84c.557-.228.886-.5.876-.793a21.98,21.98,0,0,1,.2-3.662,6.8,6.8,0,0,0-6.754-6.571h0a6.8,6.8,0,0,0-6.753,6.571c0,.966.1,1.09.012,3.86-.014.461.524.8,1.382,1.044a1.445,1.445,0,0,0,.551.391.957.957,0,0,0,.113.03,7.191,7.191,0,0,0,.738,1.835,8.1,8.1,0,0,0,.993,1.176c0,.18-.013.365-.028.555a5.514,5.514,0,0,1-.384,1.7,3.033,3.033,0,0,1-.254.467.6.6,0,0,1-.037.051q-.054.078-.114.15c-.018.022-.037.042-.056.063-.037.041-.076.081-.116.119-.022.021-.046.042-.069.062-.04.034-.082.066-.125.1l-.08.055c-.045.029-.092.055-.14.08-.028.016-.057.031-.086.045-.054.025-.11.046-.167.066-.028.01-.054.021-.083.03a1.941,1.941,0,0,1-.273.064l-.027,0v-1.2a3.8,3.8,0,0,0-1.625-2.978c-.011-.683-.026-1.3-.05-1.754-.1-1.983-2.829-2.473-5.14-2.847a4.3,4.3,0,0,0,1.082-2.8,4.427,4.427,0,0,0-1.552-3.283,2.979,2.979,0,0,0,1.08-2.556,4.134,4.134,0,0,0,.472-1.911c0-2.7-2.674-4.9-5.974-4.9s-5.974,2.191-5.974,4.9a4.124,4.124,0,0,0,.441,1.841c-.065.768.254,2.214,1.1,2.637a4.425,4.425,0,0,0-1.54,3.272,4.292,4.292,0,0,0,1.078,2.8,15.114,15.114,0,0,0-3.5.859c-.818-4.628-2.881-8.8-7.128-8.8h0c-3.95,0-6.074,3.686-7.038,7.955a2.683,2.683,0,0,0-.893-.779h0s-.615-.6-4.344-1.142a1.864,1.864,0,0,1-.26-.062l-.075-.028a1.666,1.666,0,0,1-.162-.067l-.076-.04a1.62,1.62,0,0,1-.143-.089l-.061-.043a1.819,1.819,0,0,1-.176-.151l0,0a2.074,2.074,0,0,1-.157-.181c-.015-.019-.029-.039-.043-.059-.033-.046-.066-.094-.1-.143-.015-.023-.029-.047-.042-.071-.029-.051-.057-.1-.082-.156l-.033-.066c-.034-.076-.066-.152-.1-.232a5.192,5.192,0,0,1-.27-1.334c-.014-.17-.022-.336-.026-.5a7.3,7.3,0,0,0,.888-1.056,6.406,6.406,0,0,0,.661-1.643.7.7,0,0,0,.1-.026c1.226-.459,1.434-3.021,1.014-3.167a.477.477,0,0,0-.192-.026,6.866,6.866,0,0,0,.138-1.208c0-.068,0-.147-.007-.237s.007-.192.007-.292a5.251,5.251,0,0,0-5.261-5.242h0a5.251,5.251,0,0,0-5.26,5.242c0,.045,0,.09,0,.134a5.437,5.437,0,0,0,0,.6,7.392,7.392,0,0,0,.14,1,.473.473,0,0,0-.2.025c-.42.146-.212,2.708,1.014,3.167a.7.7,0,0,0,.1.026,6.405,6.405,0,0,0,.661,1.643,7.221,7.221,0,0,0,.888,1.051c0,.161-.011.327-.025.5a5.2,5.2,0,0,1-.271,1.339c-.029.079-.061.157-.1.232-.009.022-.02.042-.03.063-.026.055-.055.108-.084.16-.013.023-.027.046-.041.068q-.046.077-.1.147c-.013.019-.026.038-.04.056a1.964,1.964,0,0,1-.158.182l0,0a1.815,1.815,0,0,1-.176.151c-.019.015-.04.028-.06.043-.047.031-.094.062-.144.089-.025.014-.05.027-.076.039a1.452,1.452,0,0,1-.162.068l-.075.028a1.864,1.864,0,0,1-.26.062h0c-3.727.537-4.342,1.141-4.342,1.141h0c-.1.057-.192.12-.283.183-1.528-3.739-4.016-6.677-7.755-6.677-4.269,0-6.859,3.37-8.307,7.5a13.226,13.226,0,0,0-3.317-.934l-.964-.617-.022.045-1.183-.887a5.235,5.235,0,0,1-.261-1.309c-.014-.171-.022-.336-.026-.5a7.284,7.284,0,0,0,.887-1.056,6.409,6.409,0,0,0,.659-1.642.765.765,0,0,0,.1-.027c1.223-.459,1.431-3.02,1.012-3.166a.455.455,0,0,0-.2-.024,7.42,7.42,0,0,0,.14-1.007c.01-.162.011-.327.005-.493,0-.079,0-.159,0-.24,0-1.6-.118-4.038-1.783-3.906,0,0,.109-1.363-2.385-1.451a9.441,9.441,0,0,0-4.568.719c-1.365.769-1.805,2.281-1.776,4.7,0,.077,0,.152.007.227s-.007.171-.007.239a6.864,6.864,0,0,0,.138,1.209.47.47,0,0,0-.183.026c-.42.146-.212,2.707,1.012,3.166a.715.715,0,0,0,.1.027,6.446,6.446,0,0,0,.659,1.642,7.313,7.313,0,0,0,.887,1.052c0,.161-.011.326-.025.5a5.235,5.235,0,0,1-.262,1.315l-1.189.892-.025-.05-.841.539c-2.261.4-4.924,1.092-5.022,2.952-.027.525-.045,1.254-.055,2.052a4.007,4.007,0,0,0-2.191,3.359v2.492a1.652,1.652,0,0,1-.162-.064c-.029-.013-.057-.029-.085-.044a1.563,1.563,0,0,1-.139-.08c-.027-.017-.053-.036-.079-.054-.043-.032-.085-.064-.125-.1-.023-.019-.045-.039-.067-.06-.041-.038-.079-.078-.117-.12-.018-.02-.036-.039-.053-.059-.041-.05-.08-.1-.117-.154-.011-.016-.023-.03-.033-.046a2.812,2.812,0,0,1-.252-.466,5.42,5.42,0,0,1-.38-1.683c-.016-.188-.024-.372-.029-.551a8.048,8.048,0,0,0,.984-1.172,7.154,7.154,0,0,0,.732-1.822c.037-.01.069-.014.111-.029,1.357-.51,1.588-3.352,1.123-3.514a.532.532,0,0,0-.213-.028,8.735,8.735,0,0,0,.14-1.036c.111-.713.2-1.518.26-2.2a4.6,4.6,0,0,0-1.842-3.822l1.23-.547c-1.066-.711-2.771-.182-3.13-.205l1.3-.834c-1.708-.451-2.5.5-3.63.535h0l1.143-1.013a5.455,5.455,0,0,0-3.318,1.255c-2.28.55-3.9,2.048-3.9,4.631a14.747,14.747,0,0,0,.354,2.973c.015.088.031.175.049.261a.524.524,0,0,0-.216.028c-.465.162-.235,3,1.123,3.514a1.142,1.142,0,0,0,.111.029,7.116,7.116,0,0,0,.732,1.822,8,8,0,0,0,.983,1.167c0,.179-.012.362-.028.551a5.459,5.459,0,0,1-.38,1.688,2.944,2.944,0,0,1-.251.464c-.012.018-.025.034-.037.051-.036.051-.073.1-.113.149-.018.022-.037.042-.056.062a1.421,1.421,0,0,1-.115.118l-.068.062c-.04.034-.081.066-.124.1l-.079.055c-.045.029-.092.055-.139.08-.028.015-.056.031-.085.044a1.772,1.772,0,0,1-.168.066c-.026.01-.052.021-.079.029a1.929,1.929,0,0,1-.272.064l-.072.012v-2.6a3.788,3.788,0,0,0-1.615-2.97c-.006-.165-.012-.335-.02-.49-.056-1.063-.858-1.7-1.946-2.118a19.458,19.458,0,0,0-3.663-.818c-.058-.009-.111-.024-.166-.038v0l-.5-.546a16.088,16.088,0,0,0,2.391-1.091c-.907-.88-.6-7.85-.6-9.265a5.563,5.563,0,0,0-5.609-5.274h0a5.562,5.562,0,0,0-5.608,5.274c0,.4.054,1.141.1,2.045a3.094,3.094,0,0,0,.055,1.232c.069,2.123,0,4.646-.758,5.988a15.339,15.339,0,0,0,2.356,1.1l-.488.537v.008c-.046.011-.09.025-.138.032a19.442,19.442,0,0,0-3.663.818c-1.088.419-1.891,1.055-1.947,2.118,0,.036,0,.079,0,.116a4,4,0,0,0-2.164,3.344v2.492a1.671,1.671,0,0,1-.163-.064c-.029-.013-.056-.029-.084-.044-.048-.025-.1-.051-.14-.08-.027-.017-.052-.036-.078-.054-.043-.032-.085-.064-.125-.1-.023-.019-.045-.039-.067-.059-.041-.039-.08-.079-.118-.121-.017-.02-.036-.039-.052-.059-.042-.05-.081-.1-.118-.155-.011-.015-.022-.029-.032-.044a2.947,2.947,0,0,1-.253-.467,5.478,5.478,0,0,1-.38-1.683c0-.017,0-.032,0-.049a6.823,6.823,0,0,0,.928-1.468,7.154,7.154,0,0,0,.663-1.647l-.018.012c.041-.13.081-.261.116-.393.037-.01.07-.014.112-.029,1.357-.51,1.587-3.352,1.122-3.514a.525.525,0,0,0-.212-.028,8.169,8.169,0,0,0,.148-1.205.7.7,0,0,0-.084-1.38v-.009a.965.965,0,0,0-.111-1.888.951.951,0,0,0,.265-.652,1,1,0,0,0-.961-.977.89.89,0,0,0,.155-.5.954.954,0,0,0-.978-.929,1.012,1.012,0,0,0-.42.093.824.824,0,0,0,.015-.142.905.905,0,0,0-.927-.881.557.557,0,1,1-.814.362.954.954,0,0,0-.978-.929.988.988,0,0,1-1.919,0,.9.9,0,0,0-.964,1.06.928.928,0,0,0-.828-.493.905.905,0,0,0-.927.881.735.735,0,0,0,.016.142,1.017,1.017,0,0,0-.421-.093.955.955,0,0,0-.978.929.881.881,0,0,0,.144.479l-.016.023a1,1,0,0,0-.934.974.944.944,0,0,0,.235.617c0,.016-.009.03-.012.046a.962.962,0,0,0-.119,1.862v.029a.694.694,0,0,0-.09,1.359c0,.035,0,.071,0,.106a8.4,8.4,0,0,0,.155,1.115.529.529,0,0,0-.216.028c-.465.162-.234,3,1.123,3.514.042.015.074.019.111.029.035.129.074.256.113.383l0,0a7.228,7.228,0,0,0,.663,1.647,6.885,6.885,0,0,0,.917,1.454c0,.02,0,.038,0,.058a5.43,5.43,0,0,1-.381,1.688,2.789,2.789,0,0,1-.251.464c-.011.018-.024.034-.036.051-.036.051-.074.1-.114.149a.815.815,0,0,1-.055.062c-.037.041-.075.081-.115.118-.022.021-.045.042-.069.062s-.081.066-.123.1l-.079.055c-.045.029-.092.055-.14.08-.028.015-.055.031-.084.044-.054.025-.111.046-.168.066-.027.01-.052.021-.08.029a1.883,1.883,0,0,1-.271.064l-.072.012v-2.6a3.9,3.9,0,0,0-1.89-3.167c0-.1,0-.206-.005-.3,0-.194-.008-.38-.012-.557-.009-.355-.021-.673-.035-.937a2.133,2.133,0,0,0-1.207-1.761c.3-5.779-1.554-16.689-8.842-16.689a6.109,6.109,0,0,0-4.43,1.936,70.469,70.469,0,0,1,7.8,9.562c9.746,14.421,13,31.8,12.814,49.428Z" transform="translate(-174)" opacity="0.55" fill="url(#linear-gradient)" style="mix-blend-mode: multiply;isolation: isolate"/>
        <path id="Path_3" data-name="Path 3" d="M302.976,259.5a173.2,173.2,0,0,1-2.527,26.532c-4.225,25.118-11.8,51.723-2.027,75.243,10.163,24.45,36.6,38.245,62.457,43.949,35.872,7.914,74.06,3.1,107.451-11.932,35.185-15.835,63.064-45.18,89.519-72.524,10.341-10.689,20.045-21.839,30.947-31.7,6.131-5.546,13.346-11.822,21.2-16.651V259.5Z" transform="translate(-174)" fill="url(#linear-gradient)"/>
        <circle id="Ellipse_1" data-name="Ellipse 1" cx="26.333" cy="26.333" r="26.333" transform="translate(366.222 393.058) rotate(-77.397)" fill="url(#linear-gradient)"/>
        <circle id="Ellipse_2" data-name="Ellipse 2" cx="11.614" cy="11.614" r="11.614" transform="translate(327.333 399.439)" fill="url(#linear-gradient)"/>
        <circle id="Ellipse_3" data-name="Ellipse 3" cx="19" cy="19" r="19" transform="translate(56 204.497)" fill="url(#linear-gradient)"/>
        <circle id="Ellipse_4" data-name="Ellipse 4" cx="9.388" cy="9.388" r="9.388" transform="translate(22.335 32.789) rotate(-45)" fill="url(#linear-gradient)"/>
        <circle id="Ellipse_5" data-name="Ellipse 5" cx="4.375" cy="4.375" r="4.375" transform="translate(0 54.75)" fill="url(#linear-gradient)"/>
        <circle id="Ellipse_6" data-name="Ellipse 6" cx="8" cy="8" r="8" transform="translate(88 328)" fill="url(#linear-gradient)"/>
      </g>
    </g>
    <g id="Group_9" data-name="Group 9" transform="translate(136 -13)">
      <g id="Group_8" data-name="Group 8">
        <path id="Path_4" data-name="Path 4" d="M559.8,192.055s-3.1-1.244-1.665-8.519l-6.091,1.675s-.06,5.359-2.017,6.7c0,0-5.942,6.163-5.867,9.423.006.29.058,3.028.058,3.028,2.869,5.028,15.882,4.586,18.963,5.04,1.389.2,4.915-4.947,4.564-7.167C566.947,197.156,559.8,192.055,559.8,192.055Z" fill="#f5aa8d"/>
        <path id="Path_5" data-name="Path 5" d="M551.013,200.775l-1.725,6.9c-2.273-.7-4.168-1.736-5.067-3.311,0,0-.052-2.738-.058-3.028a5.211,5.211,0,0,1,.541-2.14Z" fill="#ca5645"/>
        <path id="Path_6" data-name="Path 6" d="M562.935,194.709c2.03,1.954,4.374,4.743,4.813,7.529.351,2.22-3.175,7.371-4.564,7.167a6.848,6.848,0,0,1-3.344-2.314Z" fill="#ca5645"/>
        <path id="Path_7" data-name="Path 7" d="M555.3,195.164a12.375,12.375,0,0,0,1.141-3.4c.263-2.521-.1-5.971,1.142-8.292l.552.067c-1.435,7.275,1.665,8.519,1.665,8.519s-.672,5.589-5.238,4.917c-.106-.016-.2-.043-.3-.063A8.779,8.779,0,0,0,555.3,195.164Z" fill="#ca5645"/>
        <path id="Path_8" data-name="Path 8" d="M535,230.262a9.284,9.284,0,0,0,2.446,5.511c3.713,3.645.884,1.323,5.4,4.263,0,0,1.042-5.646-.5-7.653S535,230.262,535,230.262Z" fill="#1e2541"/>
        <path id="Path_9" data-name="Path 9" d="M568.258,240.739s-2.773,3.3-6.359,3.314a28.351,28.351,0,0,1-7.119-1.033A12.048,12.048,0,0,1,568.258,240.739Z" fill="#1e2541"/>
        <path id="Path_10" data-name="Path 10" d="M567.175,195.263s13.373,15.94,13.132,17.927-.964,14.429-.482,14.891a13.678,13.678,0,0,1,2.468,3.261c.452,1.094.984,3.572.643,3.913s-.516-.157-.649-.418c0,0,.331,1.178-.077,1.332s-.559-.609-.559-.609.241.913-.12,1.107-.663-.592-.663-.592.148.776-.6.418c-.429-.205-.8-2.552-1.138-3.234s-.855-1.927-1.009-1.766-.214.287-.254.789.5,2.656-.154,2.549-.967-3.014-1.087-3.67.425-2.438.278-2.987-.562-13.332-1.1-13.693-8.617-10.4-10.062-10.763S565.583,195.718,567.175,195.263Z" fill="#f5aa8d"/>
        <path id="Path_11" data-name="Path 11" d="M549.239,200.514a8.962,8.962,0,0,0-5.1-6.447c-1.08.957-10.725,13.981-10.741,14.333-.092,2-1.7,13.963-2.253,14.338a13.748,13.748,0,0,0-2.975,2.807c-.627,1-1.562,3.359-1.283,3.752s.535-.069.71-.3c0,0-.522,1.106-.145,1.325.321.187.566-.309.632-.462-.073.178-.326.849-.045,1.066.324.252.751-.474.751-.474s-.274.741.524.513c.458-.131,1.21-2.385,1.66-3s1.162-1.758,1.288-1.574.163.319.119.82-.935,2.536-.271,2.539,1.453-2.811,1.681-3.438-.014-2.475.222-2.991,3.023-12.628,3.61-12.895a10.934,10.934,0,0,1,1.568-1.885l-.01-.011C542.82,205.626,547.931,201.294,549.239,200.514Z" fill="#f5aa8d"/>
        <path id="Path_12" data-name="Path 12" d="M557.412,183.736c-.3.585-1.074.7-1.281,1.345-.395,1.221-.383,3.268-1.106,4.351a4.443,4.443,0,0,1-4.594,2.116c1.561-1.747,1.616-6.337,1.616-6.337Z" fill="#ca5645"/>
        <path id="Path_13" data-name="Path 13" d="M550.622,174.373c.547-.372,3.209.133,5.419.642a4.1,4.1,0,0,1,3.071,3.06,5.016,5.016,0,0,0,.729,1.639,2.1,2.1,0,0,1,.338,1.195,2.057,2.057,0,0,1-1.063,1.7c-.635.39-.689,1.08-1.1,1.715a6.562,6.562,0,0,1-1.871,2.5c-1.9,1-6.863,1.914-8.017.831-1.214-1.14-.487-5.583-.287-6.309s.6-1.362.691-1.835S549.652,175.03,550.622,174.373Z" fill="#f5aa8d"/>
        <path id="Path_14" data-name="Path 14" d="M556.241,178.033s-3.709,1.979-6.548-.331S548,173.547,548,173.547a1.308,1.308,0,0,0,1.4-.1c.853-.5,4.793-3.34,9.649.616a5.921,5.921,0,0,1,1.4,1.736,1.407,1.407,0,0,1,1.248,1.064c.322,1.047.234,3.994-2.58,7.213,0,0-.31.432-.6.894a.851.851,0,0,1-1.578-.393,2.149,2.149,0,0,1,.268-.974c.3-.6,2.7-1.912.879-3.012-1.488-.9-2.078,2.655-2.947,2.573s-.829-1.318.023-2.644A5.175,5.175,0,0,0,556.241,178.033Z" fill="#1e2541"/>
        <path id="Path_15" data-name="Path 15" d="M558.055,181.619a1.1,1.1,0,0,0-.907-.243.931.931,0,0,0-.545,1.147c.081.249.618.517.748-.254C557.42,181.857,557.573,181.721,558.055,181.619Z" fill="#ca5645"/>
        <g id="Group_3" data-name="Group 3">
          <path id="Path_16" data-name="Path 16" d="M548.566,180.463a.436.436,0,1,0,.557-.241A.43.43,0,0,0,548.566,180.463Z" fill="#100142"/>
        </g>
        <g id="Group_4" data-name="Group 4">
          <path id="Path_17" data-name="Path 17" d="M551.539,181.625a.541.541,0,1,0,.663-.241A.5.5,0,0,0,551.539,181.625Z" fill="#100142"/>
        </g>
        <g id="Group_5" data-name="Group 5">
          <path id="Path_18" data-name="Path 18" d="M549.114,184.329l.047.021a.143.143,0,0,0,.191-.065.146.146,0,0,0-.083-.186c-.284-.124-.448-.253-.467-.365-.029-.178.28-.4.506-.557.089-.063.172-.121.234-.175a5.223,5.223,0,0,0,.842-1.329.151.151,0,0,0-.273-.125,5.1,5.1,0,0,1-.776,1.243c-.057.048-.133.1-.214.159-.3.21-.666.472-.611.808C548.546,183.972,548.743,184.159,549.114,184.329Z" fill="#e37c58"/>
        </g>
        <g id="Group_6" data-name="Group 6">
          <path id="Path_19" data-name="Path 19" d="M548.719,185.592a2.119,2.119,0,0,0,1.333.017.12.12,0,1,0-.062-.232,1.471,1.471,0,0,1-1.567-.56.121.121,0,0,0-.153-.074.12.12,0,0,0-.073.153A1.741,1.741,0,0,0,548.719,185.592Z" fill="url(#linear-gradient-10)"/>
        </g>
        <g id="Group_7" data-name="Group 7">
          <path id="Path_20" data-name="Path 20" d="M553.166,181.589a.14.14,0,0,0,.145-.021.138.138,0,0,0,.018-.195,2.718,2.718,0,0,0-1.725-.888.139.139,0,1,0-.023.277,2.458,2.458,0,0,1,1.534.789A.142.142,0,0,0,553.166,181.589Z" fill="#100142"/>
        </g>
        <path id="Path_21" data-name="Path 21" d="M549.853,179.8c.084.064.106.159.048.213a.215.215,0,0,1-.259-.018,3.284,3.284,0,0,0-1.1-.5c0-.022.014-.047.016-.068,0-.045.014-.121.027-.212A3.856,3.856,0,0,1,549.853,179.8Z" fill="#100142"/>
        <path id="Path_22" data-name="Path 22" d="M565.3,239.636s1.3,7.818,2.852,11.151c0,0-.518,6.81-5.774,2.312,0,0-5.407-9.313-5.856-11.647S560.859,239.368,565.3,239.636Z" fill="#f5aa8d"/>
        <path id="Path_23" data-name="Path 23" d="M562.462,250.25a3.457,3.457,0,0,0,3.179-.576,6.438,6.438,0,0,0,1.485-1.789,21.29,21.29,0,0,0,1.027,2.9s-.518,6.81-5.774,2.312c0,0-.878-1.514-1.956-3.473A16.061,16.061,0,0,0,562.462,250.25Z" fill="#ca5645"/>
        <path id="Path_24" data-name="Path 24" d="M529.506,242.068a3.458,3.458,0,0,0,2.281,2.289,6.4,6.4,0,0,0,2.316.205,21.338,21.338,0,0,0-1.805,2.5s-5.9,3.442-5.183-3.438c0,0,.747-1.583,1.746-3.583A16.278,16.278,0,0,0,529.506,242.068Z" fill="#ca5645"/>
        <path id="Path_25" data-name="Path 25" d="M546.116,237.114c.008,0-11.96,7.676-13.013,7.7a10.727,10.727,0,0,1-2.188-.722c-2.564-.811-2-3.1-2.134-3.9-.051-.309,8.826-10.135,10.1-10.9C540.483,228.335,547.133,234.639,546.116,237.114Z" fill="#f5aa8d"/>
        <path id="Path_26" data-name="Path 26" d="M534.362,242.284c2.293-.954,8.521-7.279,10.606-8.623.943,1.3,1.5,2.6,1.148,3.453,0,0-11.544,7.569-13.371,9.084-.4.329-1.35-1.954-1.83-2.1-.416-.132-.781-.268-1.109-.407A25.192,25.192,0,0,0,534.362,242.284Z" fill="#ca5645"/>
        <path id="Path_27" data-name="Path 27" d="M563.415,223.493s2.876,7.372,2.287,8.589,1.9,7.185,2.556,8.657c0,0-11.9.515-13.478,2.281,0,0-2.3-9.239-2.925-9.453s-9.009,6.469-9.009,6.469-2.484-8.262-7.849-9.774a110.8,110.8,0,0,1,11.333-6.435C550.544,221.981,559.455,222.73,563.415,223.493Z" fill="#862f81"/>
        <path id="Path_28" data-name="Path 28" d="M562.4,241.186a5.933,5.933,0,0,0,.691-2.08c.294-2.084-1.435-3.033-1.8-4.873-.421-2.1,2.065-3.436,1.578-5.693a46.08,46.08,0,0,0-1.759-5.408c.87.113,1.659.236,2.306.361,0,0,2.876,7.372,2.287,8.589s1.9,7.185,2.556,8.657C568.258,240.739,565.463,240.86,562.4,241.186Z" fill="#5a71b3" opacity="0.55" style="mix-blend-mode: multiply;isolation: isolate"/>
        <path id="Path_29" data-name="Path 29" d="M543.14,236.891c.823-1.488.711-2.274,2.638-2.652a2.461,2.461,0,0,0,1.737-.855,2.4,2.4,0,0,0,.2-2.492c-.484-1.2,1.729-.157,2.234.02a5.344,5.344,0,0,0,4.183-.084,4.08,4.08,0,0,0-.064,3.277c.727,1.289,1.333,2.023,1.133,3.6a7.082,7.082,0,0,0-.09,2.183,10.252,10.252,0,0,0,.79,2.5,2.9,2.9,0,0,0-1.12.633s-2.3-9.239-2.925-9.453-9.009,6.469-9.009,6.469a20.971,20.971,0,0,0-.823-2.15A2.138,2.138,0,0,0,543.14,236.891Z" fill="#5a71b3" opacity="0.55" style="mix-blend-mode: multiply;isolation: isolate"/>
        <path id="Path_30" data-name="Path 30" d="M577.053,275.26s-3.824-10.416-4.708-14.856c-.346-1.739-.1-3.98-.64-5.473a10.954,10.954,0,0,0-4.121-5.62s-.876,3.162-5.465,3.259a17.515,17.515,0,0,0,.907,5.251c.431,1.15,5.862,9.077,8.929,14.515a13.867,13.867,0,0,1,1.4,4.022A3.646,3.646,0,0,0,577.053,275.26Z" fill="#eaf0fc"/>
        <path id="Path_31" data-name="Path 31" d="M571.6,263.167c-1.438-3.092-.238-6.069-1.29-9.144-.521-1.523-2.664-1.528-3.127-3.884a3.546,3.546,0,0,0,.4-.828,10.954,10.954,0,0,1,4.121,5.62c.537,1.493.294,3.734.64,5.473.884,4.44,4.708,14.856,4.708,14.856a3.632,3.632,0,0,1-.718.631C574.945,271.834,573.165,266.534,571.6,263.167Z" fill="#b1c8d3"/>
        <path id="Path_32" data-name="Path 32" d="M577.084,275.133s2.337,3.326,3.457,4.565c4.676,5.173-2.946,6.093-4.944,4.908s-.966-3.69-1.754-5.134a3.742,3.742,0,0,1-.455-3.24A5.4,5.4,0,0,0,577.084,275.133Z" fill="#1e2541"/>
        <path id="Path_33" data-name="Path 33" d="M517.108,268.313s4.217-10.262,5.27-14.666c.412-1.724.255-3.973.848-5.445a10.964,10.964,0,0,1,4.332-5.459s.755,3.194,5.338,3.466a17.526,17.526,0,0,1-1.107,5.212c-.475,1.133-6.2,8.847-9.476,14.164a13.862,13.862,0,0,0-1.554,3.966A3.645,3.645,0,0,1,517.108,268.313Z" fill="#eaf0fc"/>
        <path id="Path_34" data-name="Path 34" d="M531.452,246a27.661,27.661,0,0,1-.613,2.721c-.944,4.547-8.133,14.685-9.224,16.346a34.237,34.237,0,0,0-2.053,4.556c1.034.312,1.2-.074,1.2-.074a13.862,13.862,0,0,1,1.554-3.966c3.272-5.317,9-13.031,9.476-14.164a17.526,17.526,0,0,0,1.107-5.212A8.61,8.61,0,0,1,531.452,246Z" fill="#b1c8d3"/>
        <path id="Path_35" data-name="Path 35" d="M558.956,191.349s5.85,1.768,8.373,4.085c0,0-4.128,5.488-1.291,11.429,0,0-3.205,6.676-2.984,9.887s3.167,7.806,1.714,10.546c0,0-6.43-3.964-12.271-2.439s-8.963.031-8.963.031a16.174,16.174,0,0,1,1.618-6.473c1.686-3.673-.559-10.46-.931-14.05,0,0,3.026-6.209-.081-10.3a29.843,29.843,0,0,1,6.79-3.261s.208,3.717,2.8,3.712S558.956,191.349,558.956,191.349Z" fill="url(#linear-gradient-11)"/>
        <path id="Path_36" data-name="Path 36" d="M555.347,223.594c.015-1.179-2.33-5.567-1.265-6.168,2.687-1.517,5.792-2.677,5.072-6.478-.492-2.6-3.523-4.458-1.568-7.306,1.372-2,3.814-3.362,4.841-5.583a5.95,5.95,0,0,0,.2-5.354,17.575,17.575,0,0,1,4.7,2.729s-4.128,5.488-1.291,11.429c0,0-3.205,6.676-2.984,9.887s3.167,7.806,1.714,10.546a20.473,20.473,0,0,0-9.5-2.788A7.136,7.136,0,0,0,555.347,223.594Z" opacity="0.5" fill="url(#linear-gradient-12)" style="mix-blend-mode: multiply;isolation: isolate"/>
        <path id="Path_37" data-name="Path 37" d="M545.292,196.5c.205.222.418.44.637.659,1.032,1.026,2.559,2.331,2.522,3.932-.043,1.856-1.166,3.39-1.455,5.2a6.073,6.073,0,0,0,.9,3.444c1.228,2.676.463,4.145-.29,6.755-.9,3.13,1.1,6.117.938,9.021a11.011,11.011,0,0,1-5.013-.621,16.174,16.174,0,0,1,1.618-6.473c1.686-3.673-.559-10.46-.931-14.05C544.221,204.365,546.229,200.242,545.292,196.5Z" opacity="0.5" fill="url(#linear-gradient-13)" style="mix-blend-mode: multiply;isolation: isolate"/>
      </g>
      <path id="Path_38" data-name="Path 38" d="M520.818,269.682s1.7,4.09-.6,4.721-3.484.55-5.293,1.826-5.369,2.627-6.453,1.123,0-3.994,4.249-6.525,4.463-2.755,4.463-2.755A14.672,14.672,0,0,0,520.818,269.682Z" fill="#1e2541"/>
    </g>
    <g id="Group_16" data-name="Group 16" transform="translate(178 -16)">
      <path id="Path_39" data-name="Path 39" d="M336.509,187.9s3.1-1.245,1.665-8.52l6.091,1.676s.061,5.358,2.017,6.7c0,0,5.942,6.163,5.867,9.422-.006.291-.058,3.028-.058,3.028-2.869,5.029-15.881,4.586-18.963,5.04-1.388.2-4.914-4.947-4.564-7.167C329.365,193,336.509,187.9,336.509,187.9Z" fill="#f5aa8d"/>
      <path id="Path_40" data-name="Path 40" d="M345.3,196.615l1.726,6.9c2.272-.7,4.167-1.735,5.066-3.311,0,0,.052-2.737.058-3.028a5.207,5.207,0,0,0-.541-2.139Z" fill="#ca5645"/>
      <path id="Path_41" data-name="Path 41" d="M333.377,190.55c-2.03,1.953-4.374,4.743-4.813,7.528-.35,2.22,3.176,7.371,4.564,7.167a6.839,6.839,0,0,0,3.345-2.314Z" fill="#ca5645"/>
      <path id="Path_42" data-name="Path 42" d="M341.009,191.005a12.388,12.388,0,0,1-1.141-3.4c-.263-2.521.1-5.972-1.142-8.292l-.552.066c1.435,7.275-1.665,8.52-1.665,8.52s.672,5.589,5.238,4.916c.106-.015.2-.042.3-.062A8.81,8.81,0,0,1,341.009,191.005Z" fill="#ca5645"/>
      <path id="Path_43" data-name="Path 43" d="M361.628,227.243a9.285,9.285,0,0,1-2.981,5.241c-4.057,3.258-1.01,1.229-5.8,3.705,0,0-.476-5.722,1.261-7.566S361.628,227.243,361.628,227.243Z" fill="#1e2541"/>
      <path id="Path_44" data-name="Path 44" d="M327.492,234.365s2.431,3.56,6,3.93a28.327,28.327,0,0,0,7.187-.322A12.049,12.049,0,0,0,327.492,234.365Z" fill="#1e2541"/>
      <path id="Path_45" data-name="Path 45" d="M328.886,199.834s-15.314-15.593-15.33-17.594-.9-14.434-1.439-14.829a13.73,13.73,0,0,1-2.868-2.917c-.588-1.026-1.435-3.416-1.14-3.8s.531.09.7.331c0,0-.48-1.125-.1-1.33s.632.532.632.532-.356-.875-.023-1.114.733.5.733.5-.246-.75.543-.492c.453.148,1.12,2.428,1.546,3.061s1.1,1.8,1.227,1.622.176-.313.151-.816-.839-2.569-.175-2.547,1.346,2.864,1.55,3.5-.108,2.472.109,3,2.273,13.15,2.85,13.439,9.884,10.712,11.363,10.884S330.406,199.178,328.886,199.834Z" fill="#f5aa8d"/>
      <path id="Path_46" data-name="Path 46" d="M346.586,192.6a8.965,8.965,0,0,0,5.1,6.447c1.08-.958,12.391-16.6,12.407-16.953.092-2,1.7-13.963,2.252-14.338a13.705,13.705,0,0,0,2.976-2.807c.626-1,1.562-3.359,1.282-3.752s-.534.069-.709.3c0,0,.522-1.106.145-1.325-.321-.187-.566.309-.633.462.074-.178.326-.849.046-1.066-.324-.252-.751.474-.751.474s.274-.741-.525-.512c-.457.13-1.21,2.384-1.659,3s-1.163,1.758-1.288,1.574-.163-.319-.12-.82.936-2.536.272-2.539-1.454,2.811-1.681,3.438.014,2.475-.222,2.991-3.023,12.628-3.611,12.9a10.887,10.887,0,0,1-1.568,1.884l.01.011C354.67,184.868,347.893,191.819,346.586,192.6Z" fill="#f5aa8d"/>
      <path id="Path_47" data-name="Path 47" d="M338.9,179.576c.3.585,1.074.7,1.281,1.346.395,1.221.383,3.268,1.106,4.35a4.446,4.446,0,0,0,4.6,2.117c-1.562-1.748-1.617-6.337-1.617-6.337Z" fill="#ca5645"/>
      <path id="Path_48" data-name="Path 48" d="M345.691,170.214c-.548-.372-3.21.133-5.42.642a4.1,4.1,0,0,0-3.071,3.059,5.016,5.016,0,0,1-.728,1.64,2.077,2.077,0,0,0-.338,1.2,2.056,2.056,0,0,0,1.062,1.7c.635.39.689,1.079,1.1,1.715a6.579,6.579,0,0,0,1.871,2.5c1.9,1,6.863,1.915,8.017.832,1.215-1.14.487-5.583.287-6.309s-.6-1.362-.691-1.836S346.66,170.871,345.691,170.214Z" fill="#f5aa8d"/>
      <path id="Path_49" data-name="Path 49" d="M340.071,173.873s3.709,1.98,6.548-.331,1.692-4.155,1.692-4.155a1.305,1.305,0,0,1-1.4-.1c-.853-.5-4.793-3.339-9.649.616a5.915,5.915,0,0,0-1.4,1.737,1.405,1.405,0,0,0-1.248,1.064c-.322,1.047-.234,3.993,2.58,7.212,0,0,.31.433.6.894a.851.851,0,0,0,1.579-.393,2.168,2.168,0,0,0-.269-.974c-.3-.6-2.7-1.911-.879-3.011,1.488-.9,2.079,2.655,2.947,2.573s.829-1.318-.023-2.644A5.173,5.173,0,0,1,340.071,173.873Z" fill="#1e2541"/>
      <path id="Path_50" data-name="Path 50" d="M338.258,177.46a1.107,1.107,0,0,1,.907-.244.932.932,0,0,1,.544,1.148c-.081.248-.618.516-.748-.254C338.892,177.7,338.739,177.562,338.258,177.46Z" fill="#ca5645"/>
      <g id="Group_10" data-name="Group 10">
        <path id="Path_51" data-name="Path 51" d="M347.747,176.3a.436.436,0,1,1-.558-.241A.43.43,0,0,1,347.747,176.3Z" fill="#100142"/>
      </g>
      <g id="Group_11" data-name="Group 11">
        <path id="Path_52" data-name="Path 52" d="M344.773,177.466a.541.541,0,1,1-.663-.242A.5.5,0,0,1,344.773,177.466Z" fill="#100142"/>
      </g>
      <g id="Group_12" data-name="Group 12">
        <path id="Path_53" data-name="Path 53" d="M347.2,180.17l-.046.021a.144.144,0,0,1-.192-.066.146.146,0,0,1,.083-.186c.284-.124.449-.253.467-.364.029-.178-.28-.4-.506-.557-.089-.063-.171-.122-.234-.175a5.224,5.224,0,0,1-.842-1.329.151.151,0,0,1,.273-.125,5.122,5.122,0,0,0,.776,1.242c.057.049.133.1.215.16.3.21.665.471.61.808C347.767,179.813,347.569,180,347.2,180.17Z" fill="#e37c58"/>
      </g>
      <g id="Group_13" data-name="Group 13">
        <path id="Path_54" data-name="Path 54" d="M347.594,181.432a2.109,2.109,0,0,1-1.334.017.12.12,0,0,1,.062-.231,1.471,1.471,0,0,0,1.567-.56.12.12,0,1,1,.226.078A1.735,1.735,0,0,1,347.594,181.432Z" fill="url(#linear-gradient-14)"/>
      </g>
      <g id="Group_14" data-name="Group 14">
        <path id="Path_55" data-name="Path 55" d="M343.146,177.43a.14.14,0,0,1-.145-.021.138.138,0,0,1-.017-.2,2.713,2.713,0,0,1,1.725-.887.138.138,0,1,1,.022.276,2.462,2.462,0,0,0-1.534.789A.148.148,0,0,1,343.146,177.43Z" fill="#100142"/>
      </g>
      <path id="Path_56" data-name="Path 56" d="M346.459,175.639c-.084.063-.106.159-.048.213a.216.216,0,0,0,.259-.018,3.262,3.262,0,0,1,1.1-.5c0-.022-.014-.047-.016-.069,0-.044-.014-.121-.027-.211A3.811,3.811,0,0,0,346.459,175.639Z" fill="#100142"/>
      <path id="Path_57" data-name="Path 57" d="M330.543,233.561s-2.074,7.651-3.945,10.813c0,0-.16,6.828,5.516,2.874,0,0,6.306-8.73,6.983-11.008S334.99,233.736,330.543,233.561Z" fill="#f5aa8d"/>
      <path id="Path_58" data-name="Path 58" d="M332.315,244.4a3.459,3.459,0,0,1-3.107-.889,6.4,6.4,0,0,1-1.3-1.928,21.186,21.186,0,0,1-1.311,2.786s-.16,6.828,5.516,2.874c0,0,1.025-1.419,2.292-3.261A16.356,16.356,0,0,1,332.315,244.4Z" fill="#ca5645"/>
      <path id="Path_59" data-name="Path 59" d="M365.92,239.536a3.46,3.46,0,0,1-2.5,2.051,6.431,6.431,0,0,1-2.325-.026,21.174,21.174,0,0,1,1.548,2.662s5.528,4.01,5.5-2.907c0,0-.585-1.649-1.381-3.739A16.236,16.236,0,0,1,365.92,239.536Z" fill="#ca5645"/>
      <path id="Path_60" data-name="Path 60" d="M349.884,232.957c-.007,0,11.139,8.825,12.184,8.955a10.648,10.648,0,0,0,2.249-.5c2.632-.552,2.3-2.89,2.51-3.666.082-.3-7.776-10.961-8.964-11.845C356.361,224.781,349.118,230.393,349.884,232.957Z" fill="#f5aa8d"/>
      <path id="Path_61" data-name="Path 61" d="M361.067,239.269c-2.187-1.177-7.756-8.09-9.7-9.634-1.068,1.2-1.748,2.442-1.485,3.322,0,0,10.735,8.678,12.4,10.367.361.366,1.537-1.81,2.03-1.914.427-.09.8-.189,1.144-.294A25.233,25.233,0,0,1,361.067,239.269Z" fill="#ca5645"/>
      <path id="Path_62" data-name="Path 62" d="M334.023,217.685s-3.594,7.05-3.129,8.32-2.6,6.961-3.4,8.36c0,0,11.789,1.694,13.185,3.608,0,0,3.2-8.965,3.848-9.115s8.323,7.331,8.323,7.331,3.291-7.975,8.78-8.946a110.941,110.941,0,0,0-10.637-7.529C346.98,217.459,338.039,217.32,334.023,217.685Z" fill="#931813"/>
      <path id="Path_63" data-name="Path 63" d="M352.078,235.444c.474.456.77.745.77.745s3.291-7.975,8.78-8.946c0,0-.206-.168-.883-.693C355.617,227.752,353.919,231.57,352.078,235.444Z" fill="#100142"/>
      <path id="Path_64" data-name="Path 64" d="M329.913,233.5c-.6-.038-1.226-.09-1.853-.163-.234.434-.435.8-.568,1.03,0,0,11.789,1.694,13.185,3.608,0,0,.188-.527.48-1.32A28.281,28.281,0,0,0,329.913,233.5Z" fill="#100142"/>
      <path id="Path_65" data-name="Path 65" d="M333.274,235.391a5.93,5.93,0,0,1-.481-2.137c-.086-2.1,1.729-2.876,2.278-4.671.627-2.048-1.714-3.623-1.005-5.821a46.08,46.08,0,0,1,2.287-5.206c-.876.025-1.674.07-2.33.129,0,0-3.594,7.05-3.129,8.32s-2.6,6.961-3.4,8.36C327.492,234.365,330.261,234.764,333.274,235.391Z" fill="#5a71b3" opacity="0.55" style="mix-blend-mode: multiply;isolation: isolate"/>
      <path id="Path_66" data-name="Path 66" d="M352.867,233.031c-.671-1.563-.481-2.334-2.361-2.9a2.464,2.464,0,0,1-1.644-1.024,2.4,2.4,0,0,1,.049-2.5c.6-1.144-1.705-.328-2.225-.2a5.346,5.346,0,0,1-4.153-.5,4.077,4.077,0,0,1-.262,3.267c-.852,1.211-1.527,1.881-1.484,3.466a7.124,7.124,0,0,1-.127,2.181,10.222,10.222,0,0,1-1.036,2.412,2.906,2.906,0,0,1,1.053.741s3.2-8.965,3.848-9.115,8.323,7.331,8.323,7.331a20.922,20.922,0,0,1,1.032-2.058A2.134,2.134,0,0,1,352.867,233.031Z" fill="#5a71b3" opacity="0.55" style="mix-blend-mode: multiply;isolation: isolate"/>
      <path id="Path_67" data-name="Path 67" d="M315.313,267.842s4.838-9.984,6.159-14.315c.517-1.695.5-3.95,1.18-5.382a10.956,10.956,0,0,1,4.659-5.183s.558,3.233,5.115,3.786A17.55,17.55,0,0,1,331,251.883c-.544,1.1-6.735,8.45-10.327,13.556a13.9,13.9,0,0,0-1.794,3.863A3.644,3.644,0,0,1,315.313,267.842Z" fill="#eaf0fc"/>
      <path id="Path_68" data-name="Path 68" d="M321.941,256.351c1.738-2.934.84-6.015,2.192-8.971.67-1.463,2.8-1.256,3.5-3.554a3.588,3.588,0,0,1-.319-.864,10.956,10.956,0,0,0-4.659,5.183c-.682,1.432-.663,3.687-1.18,5.382-1.321,4.331-6.159,14.315-6.159,14.315a3.619,3.619,0,0,0,.651.7C317.75,264.643,320.048,259.546,321.941,256.351Z" fill="#b1c8d3"/>
      <path id="Path_69" data-name="Path 69" d="M315.294,267.714s-2.655,3.077-3.893,4.2c-5.166,4.682,2.326,6.355,4.432,5.374s1.328-3.575,2.256-4.934a3.749,3.749,0,0,0,.774-3.179A5.41,5.41,0,0,1,315.294,267.714Z" fill="#1e2541"/>
      <path id="Path_70" data-name="Path 70" d="M375.651,266.881s-3.178-10.63-3.788-15.116c-.239-1.756.141-3.979-.3-5.5a10.955,10.955,0,0,0-3.769-5.862s-1.068,3.1-5.655,2.918a17.522,17.522,0,0,0,.583,5.3c.361,1.174,5.3,9.419,8.023,15.035a13.839,13.839,0,0,1,1.153,4.1A3.646,3.646,0,0,0,375.651,266.881Z" fill="#eaf0fc"/>
      <path id="Path_71" data-name="Path 71" d="M363.593,243.256a27.579,27.579,0,0,0,.34,2.77c.488,4.618,6.635,15.419,7.555,17.18a34.161,34.161,0,0,1,1.591,4.738c-1.06.208-1.184-.193-1.184-.193a13.839,13.839,0,0,0-1.153-4.1c-2.728-5.616-7.662-13.861-8.023-15.035a17.522,17.522,0,0,1-.583-5.3A8.448,8.448,0,0,0,363.593,243.256Z" fill="#b1c8d3"/>
      <path id="Path_72" data-name="Path 72" d="M352.091,200.205s-3.932-7.984-.825-12.073a13.806,13.806,0,0,1-5.589-1.2c-.109-.063-.2-.133-.3-.2-.047.531-.422,3.632-2.8,3.628-2.4,0-4.816-2.7-5.172-3.112-.031.026-.056.054-.088.08a11.874,11.874,0,0,1-3.867,2.128c-1.777.6-5.861.555-5.932.621,0,0,5.592,6.687,2.756,12.627,0,0,3.2,6.676,2.983,9.887s-3.167,7.807-1.714,10.546c0,0,6.431-3.963,12.271-2.438s8.963.03,8.963.03a16.156,16.156,0,0,0-1.618-6.473C349.474,210.583,351.719,203.795,352.091,200.205Z" fill="#d95252"/>
      <g id="Group_15" data-name="Group 15">
        <path id="Path_73" data-name="Path 73" d="M343.828,219.844c-5.97-1.559-12.506,2.667-12.506,2.667a2.937,2.937,0,0,0,.222.625s6.431-3.964,12.271-2.438,8.963.03,8.963.03,0-.206-.021-.57C351.879,220.475,348.8,221.143,343.828,219.844Z" fill="#1e2541"/>
      </g>
      <path id="Path_74" data-name="Path 74" d="M350.289,188.085c-1.973,4.125-1.056,9.535,1.654,13.187.061-.377.114-.739.148-1.067,0,0-3.932-7.984-.825-12.073C351.266,188.132,350.878,188.13,350.289,188.085Z" fill="#100142"/>
      <path id="Path_75" data-name="Path 75" d="M330.275,202.7s.12.251.31.674c1.921-2.752,1.427-5.32.379-8.719a25.187,25.187,0,0,0-2.06-4.648c-.792.032-1.359.042-1.385.066C327.519,190.076,333.111,196.763,330.275,202.7Z" fill="#100142"/>
      <path id="Path_76" data-name="Path 76" d="M342.23,213.266c-2.687-1.516-5.792-2.676-5.072-6.477.492-2.6,3.523-4.459,1.568-7.306-1.372-2-3.814-3.362-4.841-5.583a8.39,8.39,0,0,1-.7-4.366c-1.712.536-5.594.478-5.663.542,0,0,5.592,6.687,2.756,12.627,0,0,3.2,6.676,2.983,9.887s-3.167,7.807-1.714,10.546a20.478,20.478,0,0,1,9.5-2.787,7.147,7.147,0,0,1-.078-.915C340.95,218.255,343.3,213.868,342.23,213.266Z" fill="#5a71b3" opacity="0.55" style="mix-blend-mode: multiply;isolation: isolate"/>
      <path id="Path_77" data-name="Path 77" d="M351.16,214.255c-1.37-2.984-.145-8.024.563-11.735.163-.856.3-1.642.368-2.315a22.4,22.4,0,0,1-1.969-6.947c-1.01.986-2.3,2.2-2.261,3.676.043,1.857,1.166,3.391,1.456,5.2a6.084,6.084,0,0,1-.9,3.444c-1.228,2.676-.463,4.145.29,6.754.9,3.131-1.1,6.118-.937,9.022.385.023.745.031,1.087.029h.128a13.628,13.628,0,0,0,1.775-.132l.074-.011a10.049,10.049,0,0,0,1.2-.251l.051-.014a6.144,6.144,0,0,0,.6-.2l.031-.013.062-.027A16.156,16.156,0,0,0,351.16,214.255Z" fill="#5a71b3" opacity="0.55" style="mix-blend-mode: multiply;isolation: isolate"/>
      <path id="Path_78" data-name="Path 78" d="M371.824,267.876s-2.093,3.9.132,4.758,3.412.892,5.085,2.342,5.082,3.147,6.31,1.758.394-3.974-3.58-6.914-4.167-3.185-4.167-3.185A14.67,14.67,0,0,1,371.824,267.876Z" fill="#1e2541"/>
    </g>
    <g id="Group_18" data-name="Group 18" transform="translate(162 6)">
      <g id="Group_17" data-name="Group 17">
        <path id="Path_79" data-name="Path 79" d="M469.135,124.549s7.616-.565,11.434-4.757c0,0,2.637,6.217,4.452,8.476,0,0,5.849-5.642,6.773-8.474,0,0,4.274,7.724,5.966,9.405,0,0,4.629-5.382,5.03-8.234,0,0,6.979,5.07,11.561,4.665a42.375,42.375,0,0,1-4.736-22.8c.847-9.639,13.557-31.43,19.71-41.493H527.07c-2.139,3.417-5.116,8.282-8.1,13.535l-5.638-13.427-1.461.268-4.111-.126-5.032,13.242-.108.1L498.249,62.3l-4.972-.341.173.273-2.422-.691-3.775,11.3-5.4-11.5h-3.978l.135.2-.458-.2h-4.539l-1.507,8.251a72.853,72.853,0,0,0-4.885-8.251h-3.5c4.553,5.848,11.513,16.137,13.608,26.708C479.91,104.066,474.55,115.873,469.135,124.549Zm5.039-49.32,5.51,6.965-1.373,4.666A88.22,88.22,0,0,0,474.174,75.229Zm7.478,7.6,5.7,9.827-4.153,8.8-3.34-7.237c-.018-.137-.021-.269-.041-.406-.2-1.341-.478-2.724-.8-4.119Zm4.96-8.774-5.006,7.182-8.72-9.583,5.16-10.07Zm4.91,7.6-3.253,9.88-4.5-9.656,3.433-5.158Zm2.712,1.037,4.935,10.642-4.811,7.347L489.029,92.9l-.283.14Zm7.686-7.151-7.3,6.494-.133.008-6.532-7.972,6.662-10Zm4.35,10.794-5.353,6.424L497.263,83.4l4.792-4.579Zm10.7-10.224-9.556,8.857-4.2-8.333-.2-.589c2.6-2.026,6.919-10.419,8.365-13.327Zm-6.277,14.976L508.4,86.861l6.909-5.341C513.552,84.853,511.941,88.133,510.688,91.087Zm-2.546,8.252c-.028.287-.041.576-.063.864l-2.4,3.638-4.19-9.1,5.768-6.676,2.716,4.775A26.487,26.487,0,0,0,508.142,99.339Zm-2.122,5.915,1.918-2.018a60.242,60.242,0,0,0,.576,8.769l-3.308-4.892Zm-1.867,13.115.929-8.473,3.8,4.51c.806,4.637,1.9,8.053,2.4,8.695Zm-2.006-1.961-7.426-11.015L499.8,95.86l4.447,11.275Zm-9.749.386,2.005-9.728,6.732,11.156-3.783,7.854Zm-2.889-2.072-4.66-9.466,3.568-10.573,5.23,10.358Zm-8.38,2.3,2.747-9.567,5.866,10.713-5.11,5.625Zm-.938-1.64-1.9-5.377a38.976,38.976,0,0,0,1.837-11.6l2.912,6.327Zm-.654,1.525a68.533,68.533,0,0,1-6.507,4.456,44.073,44.073,0,0,0,4-7.788Z" fill="#ebf1f4"/>
        <path id="Path_80" data-name="Path 80" d="M490.663,117.157h0l-.359.4Z" fill="#ebf1f4"/>
      </g>
      <rect id="Rectangle_2" data-name="Rectangle 2" width="72.214" height="10.464" transform="translate(459.802 52.561)" fill="url(#radial-gradient)"/>
      <rect id="Rectangle_3" data-name="Rectangle 3" width="72.214" height="4.616" transform="translate(459.802 58.408)" opacity="0.75" fill="url(#radial-gradient-2)" style="mix-blend-mode: multiply;isolation: isolate"/>
      <path id="Path_81" data-name="Path 81" d="M574.567,68.781h7.947a9.611,9.611,0,0,1,7.4,3.48l7.966,9.616V47.944H574.567Z" fill="#1e2541"/>
      <path id="Path_82" data-name="Path 82" d="M530.015,64.281h12.747c4.59,0,3.869,9.47,6.8,10.841l18.621,4-.769-27.808h-37.4Z" fill="#1e2541"/>
      <path id="Path_83" data-name="Path 83" d="M563.346,115.307h14.439a1.472,1.472,0,0,0,1.475-1.471V44.41a1.472,1.472,0,0,0-1.475-1.47H563.346a1.473,1.473,0,0,0-1.476,1.47v69.426A1.473,1.473,0,0,0,563.346,115.307Z" fill="#1e2541"/>
      <rect id="Rectangle_4" data-name="Rectangle 4" width="21.083" height="88.026" rx="1.789" transform="translate(560.024 17.012)" fill="url(#linear-gradient-15)"/>
      <path id="Path_84" data-name="Path 84" d="M581.107,85.955v17.294a1.79,1.79,0,0,1-1.789,1.789H561.813a1.79,1.79,0,0,1-1.789-1.789V85.955Z" fill="#aa3b1d" opacity="0.55" style="mix-blend-mode: multiply;isolation: isolate"/>
      <rect id="Rectangle_5" data-name="Rectangle 5" width="19.275" height="43.859" rx="1.789" transform="translate(590.725 40.211)" fill="url(#linear-gradient-16)"/>
      <path id="Path_85" data-name="Path 85" d="M610,64.333V82.281a1.789,1.789,0,0,1-1.789,1.789h-15.7a1.789,1.789,0,0,1-1.789-1.789V64.333Z" fill="#1e2541"/>
    </g>
    <g id="Group_28" data-name="Group 28" transform="translate(176 11)">
      <path id="Path_86" data-name="Path 86" d="M406.56,195.475s36.537,7.149,51.791-.79c0,0-5.823-7.782-18.642-10.221S406.56,195.475,406.56,195.475Z" fill="url(#linear-gradient-17)"/>
      <path id="Path_87" data-name="Path 87" d="M406.56,195.475s36.537,7.149,51.791-.79c0,0-5.823-7.782-18.642-10.221S406.56,195.475,406.56,195.475Z" fill="url(#linear-gradient-18)" style="mix-blend-mode: multiply;isolation: isolate"/>
      <path id="Path_88" data-name="Path 88" d="M404.206,117.69s-1.311.432-3.208.913a40.4,40.4,0,0,0-10.642,3.453,73.578,73.578,0,0,0-8.623,5.152,25.7,25.7,0,0,0-1.641,4.4c-.236,1.416,10.778,22.1,13.9,28.393s13.1,5.427,15.841-4.955S408.5,121.112,404.206,117.69Z" fill="url(#linear-gradient-19)"/>
      <path id="Path_89" data-name="Path 89" d="M404.206,117.69s-1.311.432-3.208.913a40.4,40.4,0,0,0-10.642,3.453,73.578,73.578,0,0,0-8.623,5.152,25.7,25.7,0,0,0-1.641,4.4c-.236,1.416,10.778,22.1,13.9,28.393s13.1,5.427,15.841-4.955S408.5,121.112,404.206,117.69Z" fill="#5a71b3" opacity="0.85" style="mix-blend-mode: multiply;isolation: isolate"/>
      <path id="Path_90" data-name="Path 90" d="M404.206,117.69s-1.311.432-3.208.913a40.4,40.4,0,0,0-10.642,3.453c-2.525,1.343-4.678,2.541-6.645,3.808.524.538,1.066,1.056,1.617,1.563a29.742,29.742,0,0,1,6.662-4.287c4.271-1.948,8.993-2.522,13.462-3.9A5.765,5.765,0,0,0,404.206,117.69Z" fill="#100142"/>
      <path id="Path_91" data-name="Path 91" d="M567.279,147.224c1.022-1.3-5.82-2.635-7.079-2.675s-7.039-.786-7.039-.786c8.376-.354,10.736-1.947,10.5-3.126s-6.666-.177-8.023.059-5.82,1.061-7.393,1.3-5.82,2.6-8.179,3.421-21.944-4.01-32.443-5.152-15.927-.156-20.8-1.1-31.146-12.112-36.808-12.427-16.784-.487-16.784-.487h0c-.161-.484-.283-.771-.283-.771a27.32,27.32,0,0,1-12.978-23.831L404.808,91.559l-.885,4.218s2.8,15.213.281,21.677a29.035,29.035,0,0,1-1.76,2.4,2.841,2.841,0,0,1-.645.31s.036.129.1.345c-2.121,2.489-5.459,5.609-8.987,5.75-5.9.236-25.955-17.6-28.629-22.159S347.61,75.456,346.666,71.523c-.523-2.179-1.428-5.016-1.1-7a4.413,4.413,0,0,1,1.73-2.6,31.3,31.3,0,0,0,5.584-11.09c1.34-4.535-1.18-1.809-4.326,2.438s-6.606,5.191-10.067,6.764-11.011-3.3-16.988-2.359,1.777,5.115,5.977,6.685c5.271,1.97,7.3,2.35,8.73,5.545a122.418,122.418,0,0,1,4.247,11.561c1.912,5.821,13.921,34.8,16.753,39.05s33.977,29.494,37.752,32.8,14.629,29.1,15.752,32.875,0,15.731,0,15.731,40.168,7.314,41.112.707-1.652-17.7-3.371-20.055,1.158-31.948.067-35.039c-1.415-4.011,3.422-2.831,3.422-2.831,11.089,5.191,30.083,5.545,31.145,5.545s.944-.118,8.966,1.3,43.769.315,45.027,1.3,5.623,5.9,6.8,5.938,4.8,2.045,5.388.747-.944-1.966-2.714-3.106a6.263,6.263,0,0,1-2.6-3.658c-.118-.629,5.269-.825,6.371-.825a18.784,18.784,0,0,1,5.515.078c3.1.531,6.724,1.593,7.609.531s-3.775-2.242-4.571-2.478-5.073-.943-5.073-.943c1.032.059,5.427.442,5.427.442,5.9,1.888,8.051.885,7.432.148s-6.636-2.33-7.138-2.478-5.584-.767-5.584-.767,5.231.354,6.017.59S566.256,148.521,567.279,147.224Z" fill="#f5aa8d"/>
      <path id="Path_92" data-name="Path 92" d="M448.367,162.757c.333-7.167.638-13.838.15-15.219-1.415-4.011,3.422-2.831,3.422-2.831,11.089,5.191,30.083,5.545,31.145,5.545a9.859,9.859,0,0,1,1.145.033q-2.046-1.032-4.112-2.126c-5.8-3.051-12.6-.608-18.682-3.115-5.994-2.471-19.021-9.9-19.642,2.376a3.9,3.9,0,0,1-5.152,3.463v11.874Z" fill="#ca5645"/>
      <path id="Path_93" data-name="Path 93" d="M410.107,132.724c-.536-1.274-1.121-2.477-1.732-3.649-1.039-1.17-2.055-2.332-3.067-3.393a56.333,56.333,0,0,1-3.951-4.565,16.728,16.728,0,0,1-6.3,4.678c1.895,3.768,3.883,11.005,2.145,15.036-1.05,2.436-2.477,4.075-5.191,3.758-2.357-.275-8.832-5.354-9.238-5.523-10.817-4.5-13.661-10.472-19.605-14.419a16.823,16.823,0,0,0-4-1.953c7.53,7.473,32.442,27.692,35.794,30.625,2.153,1.884,6.609,11.087,10.249,19.348h12.4V150.143C414.586,144.542,412.567,138.585,410.107,132.724Z" fill="#ca5645"/>
      <path id="Path_94" data-name="Path 94" d="M342.922,62.239a18.928,18.928,0,0,1,5.746-2.217,31.731,31.731,0,0,0,4.211-9.184c1.34-4.535-1.18-1.809-4.326,2.438s-6.606,5.191-10.067,6.764-11.011-3.3-16.988-2.359,1.777,5.115,5.977,6.685c3.789,1.416,5.894,2.024,7.313,3.433C337.388,65.794,340.166,64.016,342.922,62.239Z" fill="#ca5645"/>
      <path id="Path_95" data-name="Path 95" d="M413.622,202.424a3.724,3.724,0,0,1,1-2.068c10.864-11.765,23.857-7.62,37.213-4.441-.54-5.7-2.178-11.679-3.387-13.338-.318-.437-.478-1.812-.536-3.776H407.838c1.475,3.542,2.556,6.335,2.871,7.393,1.123,3.776,0,15.731,0,15.731S411.807,202.124,413.622,202.424Z" fill="#ca5645"/>
      <path id="Path_96" data-name="Path 96" d="M422.1,203.706c11.036,1.51,26.477,2.965,29.27-.2C441.238,200.96,430.7,196.754,422.1,203.706Z" fill="#ca5645"/>
      <path id="Path_97" data-name="Path 97" d="M417.7,233.614s2.133,46.922,1.13,47.586a46.889,46.889,0,0,0-18.87,21.758c-5.862,14.367-21.739,36.868-24.134,39.118,0,0-2.321,9.829,4.178,12.02,0,0,51.8-57.211,61.668-64.87,9.123-7.079,6.392-66.7,6.392-66.7Z" fill="#f5aa8d"/>
      <path id="Path_98" data-name="Path 98" d="M393.349,324.364c3.945-7.41,8.017-15.332,15.59-19.68,4.711-2.7,17.942-10.754,19.546-16.6a55.245,55.245,0,0,1,4.556-10.413c3.668-6.119,8.325-5.932,14.037-5.97,2.121-15.2.989-49.172.989-49.172L417.7,233.614s2.133,46.922,1.13,47.586a46.889,46.889,0,0,0-18.87,21.758c-5.862,14.367-21.739,36.868-24.133,39.118a23.113,23.113,0,0,0,.846,4.889C382.985,340,388.909,332.7,393.349,324.364Z" fill="url(#linear-gradient-20)"/>
      <path id="Path_99" data-name="Path 99" d="M454.731,250.505a222.315,222.315,0,0,1-22.337-3.593l6.952-49.339s10.508.419,14.284,1.992c0,0,2.988,14.813,2.2,24.474S454.731,250.505,454.731,250.505Z" fill="url(#linear-gradient-20)"/>
      <path id="Path_100" data-name="Path 100" d="M433.181,244.818l.148-1.052h-.492l-.443,3.146a222.315,222.315,0,0,0,22.337,3.593s.016-.83.047-2.175A218.193,218.193,0,0,1,433.181,244.818Z" fill="#100142"/>
      <path id="Path_101" data-name="Path 101" d="M444.256,237.457a12.268,12.268,0,0,1,.58-2.411,13.962,13.962,0,0,0-.667-10.259,12.623,12.623,0,0,1-1.258-5.454c.127-6.121-1.128-11.42-4.379-15.983l-6.138,43.562c5.3.816,6.213,1.652,16.472,2.873C445.7,246.636,443.722,241.723,444.256,237.457Z" fill="#5a71b3" opacity="0.55" style="mix-blend-mode: multiply;isolation: isolate"/>
      <path id="Path_102" data-name="Path 102" d="M418.718,112.6a20.3,20.3,0,0,0,4.642,2.806,27.03,27.03,0,0,1-3.393-13.764l-7.4-1.885C413.373,104.607,414.484,109.244,418.718,112.6Z" fill="#ca5645"/>
      <path id="Path_103" data-name="Path 103" d="M408.488,122.426c.647-7.379,2.505-13.338.289-20.838a74.98,74.98,0,0,0-3.586-7.64l-1.268,1.829s4.129,22.385-2.124,24.391a39.088,39.088,0,0,0,6.85,13.205A52.788,52.788,0,0,1,408.488,122.426Z" fill="#ca5645"/>
      <path id="Path_104" data-name="Path 104" d="M419.067,65.09a16.477,16.477,0,0,1,9.266,14.024c.048.641-.276,1.919.043,2.476,1.191,2.076,3.907,6.384,4.7,7.629.993,1.562-2.945,2.244-3.513,2.812s1.568,7.408.149,9.821-11.145,3.54-19.162,0c-4.734-2.091-2.852-7.914-8.751-10.745-2.806-1.347-9.984-7-3.313-12.533S408.138,62.535,419.067,65.09Z" fill="#f5aa8d"/>
      <path id="Path_105" data-name="Path 105" d="M406.518,226.7s-3.994,49.192-5.191,49.314c-12.374,1.258-12.977,3.775-23.83,14.864s-38.224,24.067-41.292,25.247c0,0-3.539,9.674,1.652,14.157,0,0,63.706-32.325,75.976-34.685S435.3,229.059,435.3,229.059Z" fill="#f5aa8d"/>
      <g id="Group_19" data-name="Group 19">
        <path id="Path_106" data-name="Path 106" d="M424.745,85.117a1.762,1.762,0,1,1-2.015-1.11A1.635,1.635,0,0,1,424.745,85.117Z" fill="#100142"/>
      </g>
      <g id="Group_20" data-name="Group 20">
        <path id="Path_107" data-name="Path 107" d="M418.867,82.424a.379.379,0,0,1-.4-.14.451.451,0,0,1,.057-.6,7.59,7.59,0,0,1,5.35-1.773.43.43,0,0,1-.086.853,6.882,6.882,0,0,0-4.759,1.574A.39.39,0,0,1,418.867,82.424Z" fill="#100142"/>
      </g>
      <path id="Path_108" data-name="Path 108" d="M429.831,95.382a6.924,6.924,0,0,1-3.152-.705.66.66,0,1,0-.587,1.182,8.058,8.058,0,0,0,3.955,1.088C429.92,96.5,429.959,95.809,429.831,95.382Z" fill="url(#linear-gradient-22)"/>
      <path id="Path_109" data-name="Path 109" d="M432.473,67.512c-.629-4.876-11.231-13.607-17.649-11.64s-10.115,13.37-14.755,13.37-5.191-1.573-7.55.079-6.45,8.971-.708,16.086,7.427,7.659,8.1,8.767c1.887,3.107,3.2,3.274,4.294,3.6a5.894,5.894,0,0,0,.72-5.394c-.729-1.738-6.43-7.954-.236-9.556,6.918-1.79,4.424,6.017,4.778,7.079a7.823,7.823,0,0,0,3.985-.568c-.159-.737-.317-1.443-.387-1.968-.236-1.771,1.219-7.748-2.458-11.366,0,0,6.473-3.956,11.569-2.91s5.967,4.4,5.967,4.4S433.1,72.388,432.473,67.512Z" fill="#100142"/>
      <path id="Path_110" data-name="Path 110" d="M404.206,84.57s2.094-.561,3.316.571a3.334,3.334,0,0,1,.046,4.549c-.636.687-2.784.752-2.049-1.948C405.913,86.294,405.618,85.624,404.206,84.57Z" fill="#ca5645"/>
      <path id="Path_111" data-name="Path 111" d="M427.59,121.154s4.332,11.323-2.353,11.716-21.031-15.422-21.031-15.422l-6.194,1.785s12.161,38.224-4.02,40.716c0,0,7.414,14.763,11.189,19.639s2.128,13.528,1.379,15.887c0,0,14.666-7.708,30.553-5.977s21.238,5.187,21.238,5.187,3.144-15.884-3.935-30.67c-5.641-11.783-5.969-15.887-5.969-15.887s-9.122-4.76-13.256-21.846C435.191,126.282,428.255,121.818,427.59,121.154Z" fill="url(#linear-gradient-23)"/>
      <g id="Group_21" data-name="Group 21">
        <path id="Path_112" data-name="Path 112" d="M449.167,151.161a17.646,17.646,0,0,1-.72-3.033s-9.122-4.76-13.256-21.846c0,0,.3.212-1.368-.886C438.286,144.326,445.932,149.5,449.167,151.161Z" fill="#100142"/>
      </g>
      <path id="Path_113" data-name="Path 113" d="M425.7,189.74c-3.123-3.32-7.464-6.134-10.541-9.778-3.3-3.908-4.279-10.032-1.754-14.627,5.3-9.641-6.06-11.127-6.833-20.013-.49-5.646,1.415-11.471-2.1-16.465-2.2-3.12-3.655-6.645-5.633-9.861l-.823.237s.3.933.736,2.516c.124.448.26.949.4,1.5,2.6,9.876,7.779,34.712-5.159,36.705,0,0,7.414,14.763,11.189,19.639s2.128,13.528,1.379,15.887A75.684,75.684,0,0,1,425.7,189.74Z" fill="#5a71b3" opacity="0.55" style="mix-blend-mode: multiply;isolation: isolate"/>
      <g id="Group_22" data-name="Group 22">
        <path id="Path_114" data-name="Path 114" d="M393.992,159.949s.459.914,1.2,2.359c13.83-3.376,8.977-28.746,6.127-39.882a5.665,5.665,0,0,0-1.5-2.907,2.488,2.488,0,0,0-1.811-.286s-4.877,1.126-4.53,2.351c.082.29,4.975-.9,5.367.534C401.291,131.067,407.455,157.875,393.992,159.949Z" fill="#100142"/>
        <path id="Path_115" data-name="Path 115" d="M438.813,187.207c-15.832-1.724-30.321,4.926-31.986,6.686a7.685,7.685,0,0,1-.267,1.582s14.666-7.708,30.553-5.977,21.239,5.187,21.239,5.187.211-1.09.4-2.938C456.416,190.673,450.465,188.476,438.813,187.207Z" fill="#100142"/>
      </g>
      <path id="Path_116" data-name="Path 116" d="M411.13,195.475s-7.522,15.73-8.308,23.438-.944,22.022-6.135,26.269c0,0,13.056,4.247,20.449,5.033s15.415-.314,18.168,0c0,0,6.463-43.086,8.258-51.279C443.562,198.936,426.831,192.487,411.13,195.475Z" fill="url(#linear-gradient-24)"/>
      <g id="Group_23" data-name="Group 23">
        <path id="Path_117" data-name="Path 117" d="M417.889,247.813c-6.337-.675-16.495-3.951-19.365-4.856a14.874,14.874,0,0,1-1.837,2.225s13.056,4.247,20.449,5.033,15.415-.314,18.168,0c0,0,.236-1.257.413-2.428C432.7,247.581,425.009,248.57,417.889,247.813Z" fill="#100142"/>
      </g>
      <path id="Path_118" data-name="Path 118" d="M410.879,247.285a15.035,15.035,0,0,1,1.322-9.017c1.4-2.543,6.4-7.666,5.158-10.879-2.493-6.464-4.875-11.437-2.507-18.357,1.5-4.369,8.746-9.325,9.22-14.188a50.8,50.8,0,0,0-12.942.631s-7.522,15.73-8.308,23.438-.944,22.022-6.135,26.269c0,0,7.674,2.493,14.588,4.013A12.494,12.494,0,0,1,410.879,247.285Z" fill="#5a71b3" opacity="0.55" style="mix-blend-mode: multiply;isolation: isolate"/>
      <path id="Path_119" data-name="Path 119" d="M338.356,315.182s-10.566-.946-14.5,1.257-8.966,36.336-4.719,40.426,11.641-3.989,12.742-8.759,3.841-16.846,6.476-18.055C338.356,330.051,335.474,320.769,338.356,315.182Z" fill="#100142"/>
      <path id="Path_120" data-name="Path 120" d="M376.733,340.573s-9.818,1.467-12.909,4.336.678,34.921,5.441,37.705,8.877-6.092,8.828-10.672-.216-16.166,1.914-17.846C380.007,354.1,375.342,346.289,376.733,340.573Z" fill="#100142"/>
      <path id="Path_121" data-name="Path 121" d="M425.237,132.87c-6.685.393-21.031-15.422-21.031-15.422l-1.819.524c5.13,6.241,16.879,17.714,24.132,17.572,5.8-.113,4.413-8.3,3.185-12.868a24.534,24.534,0,0,1-2.114-1.522S431.922,132.477,425.237,132.87Z" fill="#100142"/>
      <g id="Group_27" data-name="Group 27">
        <g id="Group_26" data-name="Group 26">
          <g id="Group_25" data-name="Group 25">
            <path id="Path_122" data-name="Path 122" d="M355.132,45.88a20.924,20.924,0,0,0-12.007-24.307c-5.56-2.282-14.218-4.664-24.068,1.65-13.457,8.625-11.331,28.143.575,35C336.538,67.962,352.284,56.8,355.132,45.88Z" fill="url(#linear-gradient-25)"/>
            <g id="Group_24" data-name="Group 24">
              <path id="Path_123" data-name="Path 123" d="M355.766,41.391c.012-.447.008-.892-.008-1.337A43.525,43.525,0,0,1,346.47,43.4a39.422,39.422,0,0,1-12.644.584c-.364-5.749,3.091-9.482,7.548-11.6a23.94,23.94,0,0,1,11.484-2.229c-.208-.355-.422-.706-.65-1.049-3.005.032-9.389.548-14.053,4.047a12.253,12.253,0,0,0-4.944,10.762,26.16,26.16,0,0,1-7.972-2.179c.024-.164.042-.323.07-.489,1.822-11.12,10.481-17.436,17.26-19.893-.507-.2-1.039-.4-1.591-.591a33.76,33.76,0,0,0-7.418,4.584,26.385,26.385,0,0,0-8.938,16.074c-.1-.054-.2-.107-.3-.162-1.467-.837-2.752-1.651-3.88-2.442a16.053,16.053,0,0,0,2.324-3.941,30.559,30.559,0,0,0,1.986-14.439c-.233.08-.465.165-.7.254.3,4.182.186,12.209-4.272,17.652a33.764,33.764,0,0,1-7.557-7.806c-.17.315-.332.632-.483.953a45.065,45.065,0,0,0,7.5,7.478,14.552,14.552,0,0,1-9.164,4.76c.08.505.175,1.008.289,1.507a20.576,20.576,0,0,0,9.529-5.77,31.791,31.791,0,0,0,4.6,2.851,30.376,30.376,0,0,0,.733,11.611,56.122,56.122,0,0,0,3.138,7.61q.822.156,1.633.253c-2.483-3.1-6.074-9.417-4.881-19.167a24.128,24.128,0,0,0,3.776,1.427,31.394,31.394,0,0,0,4.43.884A12.911,12.911,0,0,0,341.632,55.2a25.452,25.452,0,0,0,6.181,1.4c.255-.206.506-.414.751-.628-5.622-.454-12.946-2.68-14.572-10.964C341.7,45.877,350.8,44.558,355.766,41.391Z" fill="#752200"/>
            </g>
          </g>
          <path id="Path_124" data-name="Path 124" d="M348.642,47.49a29.476,29.476,0,0,1-10.027.627c-3.321-.28-8-.622-10.933-2.262-5.245-2.932-10.187-9.36-10.98-19.547a18.34,18.34,0,0,0-4.134,5.568h0c-4.26,8.875-.962,20.337,7.577,25.156a27.057,27.057,0,0,0,8.381,3.112h0c.262.049.522.092.781.131l.015,0q.387.059.771.1h0c12.074,1.422,21.978-6.837,24.139-14.962.056-.207.106-.416.154-.624A19.927,19.927,0,0,1,348.642,47.49Z" fill="#aa3b1d" opacity="0.32" style="mix-blend-mode: multiply;isolation: isolate"/>
        </g>
      </g>
    </g>
    <path id="Path_125" data-name="Path 125" d="M409.432,30.262,402.9,28.4l-5.233,4.327-.251-6.785-5.732-3.64,6.376-2.336,1.69-6.576,4.192,5.342,6.777-.425-3.785,5.637Z" fill="#fff"/>
    <path id="Path_126" data-name="Path 126" d="M586.224,150.789l-2.389-4.84-5.341-.776,3.865-3.767-.912-5.32,4.777,2.512L591,136.085l-.912,5.32,3.865,3.767-5.341.776Z" fill="#fff"/>
    <path id="Path_127" data-name="Path 127" d="M532.03,31.669l-2.461.037L528.2,33.755l-.8-2.329-2.37-.665,1.969-1.477-.1-2.46,2.013,1.417,2.308-.856-.725,2.352Z" fill="#fff"/>
    <path id="Path_128" data-name="Path 128" d="M310.141,142.4,305.5,140.42l-4.267,2.7.451-5.031-3.889-3.223,4.924-1.126,1.864-4.695,2.593,4.335,5.041.322-3.322,3.805Z" fill="#fff"/>
    <path id="Path_129" data-name="Path 129" d="M239.778,115.465l-2.756-.082-1.63,2.224-.774-2.646L232,114.1l2.278-1.554.011-2.757,2.181,1.686,2.625-.841-.929,2.6Z" fill="#fff"/>
    <path id="Path_130" data-name="Path 130" d="M272,79.123,269.075,76.2l-4.067.751,1.878-3.685-1.971-3.636,4.085.647,2.849-3,.647,4.085,3.732,1.783-3.685,1.878Z" fill="#fff"/>
    <path id="Path_131" data-name="Path 131" d="M493.75,184.364l-2.663-.225-1.695,2.066-.609-2.6-2.489-.973,2.286-1.383.156-2.668,2.022,1.747,2.585-.675-1.036,2.463Z" fill="#fff"/>
    <path id="Path_132" data-name="Path 132" d="M382.77,176.523l-1.046-2.119-2.339-.34,1.692-1.649-.4-2.329,2.092,1.1,2.092-1.1-.4,2.329,1.692,1.649-2.338.34Z" fill="#fff"/>
  </g>
</svg>
