<svg xmlns="http://www.w3.org/2000/svg" xmlns:xlink="http://www.w3.org/1999/xlink" width="5500" height="3300" viewBox="0 0 5500 3300">
  <defs>
    <clipPath id="clip-Artboard_5">
      <rect width="5500" height="3300"/>
    </clipPath>
  </defs>
  <g id="Artboard_5" data-name="Artboard 5" clip-path="url(#clip-Artboard_5)">
    <rect width="5500" height="3300" fill="#fff"/>
    <path id="Path_141" data-name="Path 141" d="M0,0H5500V3300H0Z" fill="#f8ead7"/>
    <g id="Group_53" data-name="Group 53">
      <rect id="Rectangle_2" data-name="Rectangle 2" width="5500" height="880.427" transform="translate(0 2418.473)" fill="#ede09c"/>
      <g id="Group_1" data-name="Group 1">
        <path id="Path_1" data-name="Path 1" d="M2739.925,3300h-49.5c0-109.828-42.792-217.559-127.189-320.2-41.2-50.1-92.258-98.623-151.766-144.212-59.394-45.5-127.612-88.4-202.758-127.5-153.753-80.006-332.469-142.947-531.18-187.076-207.149-46-426.69-69.327-652.524-69.327H659.087v-49.5h365.921c229.437,0,452.589,23.721,663.255,70.5,202.924,45.065,385.716,109.49,543.3,191.488,77.686,40.424,148.345,84.875,210.012,132.119,62.506,47.886,116.3,99.049,159.9,152.068,44.746,54.419,79.178,111.329,102.341,169.147C2727.775,3177.323,2739.925,3238.722,2739.925,3300Z" fill="#fff"/>
      </g>
      <rect id="Rectangle_3" data-name="Rectangle 3" width="5494.038" height="52.811" transform="translate(0.004 2399.892)" fill="#fff"/>
      <g id="Group_2" data-name="Group 2">
        <path id="Path_2" data-name="Path 2" d="M5115.3,3297.525l-.858,2.475H4972L2541.477,2452.7h150.4Z" fill="#fff"/>
      </g>
      <g id="Group_52" data-name="Group 52" style="mix-blend-mode: multiply;isolation: isolate">
        <g id="Group_3" data-name="Group 3">
          <path id="Path_3" data-name="Path 3" d="M5494.042,3111.482v9.471L3182.48,2453.66h32.758l194.414,56.122,19.052,5.5,215.1,62.1,19.052,5.5,215.094,62.084,19.052,5.5,215.105,62.095,19.052,5.5,215.1,62.095,19.052,5.5,215.1,62.095,19.052,5.5,215.105,62.1,19.052,5.5,215.094,62.095,19.052,5.5,215.1,62.095,19.052,5.5Z" fill="#3b0606"/>
        </g>
        <g id="Group_4" data-name="Group 4">
          <path id="Path_4" data-name="Path 4" d="M5362.042,2853.246l132,38.1v9.46l-164.758-47.564-19.052-5.5-215.1-62.095-19.052-5.5-215.1-62.095-19.052-5.5-215.1-62.095-19.052-5.5L4392.7,2582.877l-19.052-5.5-215.105-62.1-19.052-5.5-194.414-56.122h32.758l194.414,56.122,19.052,5.5,215.1,62.1,19.052,5.5,215.061,62.084,19.053,5.5,215.1,62.095,19.052,5.5,215.105,62.095,19.052,5.5,215.1,62.095Z" fill="#3b0606"/>
        </g>
        <g id="Group_5" data-name="Group 5">
          <path id="Path_5" data-name="Path 5" d="M5422.157,2650.461l71.885,20.746v9.46L5389.4,2650.461l-19.052-5.5-215.061-62.084-19.053-5.5-215.1-62.1-19.052-5.5-194.414-56.122h32.758l194.414,56.122,19.052,5.5,215.1,62.1,19.052,5.5,215.061,62.084Z" fill="#3b0606"/>
        </g>
        <g id="Group_6" data-name="Group 6">
          <path id="Path_6" data-name="Path 6" d="M5470.26,2453.66h23.782v6.864Z" fill="#3b0606"/>
        </g>
        <g id="Group_50" data-name="Group 50">
          <g id="Group_17" data-name="Group 17">
            <g id="Group_7" data-name="Group 7">
              <path id="Path_7" data-name="Path 7" d="M5360.523,3056.031l133.519,38.544v1.584l-139.019-40.128-19.052-5.5-215.1-62.095-19.052-5.5-215.1-62.095-19.052-5.5-215.1-62.1-19.052-5.5L4418.4,2785.651l-19.052-5.5-215.1-62.095-19.052-5.5-215.105-62.095-19.052-5.5-215.061-62.084-19.052-5.5-215.1-62.1-19.052-5.5-194.414-56.122h5.5l194.414,56.122,19.052,5.5,215.1,62.1,19.052,5.5,215.061,62.084,19.052,5.5,215.105,62.095,19.052,5.5,215.1,62.095,19.052,5.5L4639,2847.746l19.052,5.5,215.1,62.1,19.052,5.5,215.1,62.095,19.052,5.5,215.1,62.095Z" fill="#3b0606"/>
            </g>
            <g id="Group_8" data-name="Group 8">
              <path id="Path_8" data-name="Path 8" d="M5429.142,3056.031l64.9,18.733v1.595l-70.4-20.328-19.052-5.5-215.1-62.095-19.052-5.5-215.105-62.095-19.052-5.5-215.1-62.1-19.052-5.5-215.1-62.095-19.052-5.5-215.1-62.095-19.052-5.5-215.1-62.095-19.052-5.5-215.061-62.084-19.052-5.5-215.1-62.1-19.052-5.5-194.414-56.122h5.5l194.414,56.122,19.052,5.5,215.1,62.1,19.052,5.5,215.061,62.084,19.052,5.5,215.1,62.095,19.052,5.5,215.1,62.095,19.052,5.5,215.1,62.095,19.052,5.5,215.1,62.1,19.052,5.5,215.105,62.095,19.052,5.5,215.1,62.095Z" fill="#3b0606"/>
            </g>
            <g id="Group_9" data-name="Group 9">
              <path id="Path_9" data-name="Path 9" d="M5478.708,3050.531l15.334,4.422v1.595l-1.782-.517-19.052-5.5L5258.1,2988.436l-19.052-5.5-215.1-62.095-19.053-5.5-215.1-62.1-19.052-5.5-215.1-62.095-19.052-5.5-215.1-62.095-19.052-5.5-215.105-62.095-19.052-5.5L3853.2,2582.877l-19.052-5.5-215.1-62.1-19.052-5.5-194.414-56.122h5.5l194.414,56.122,19.052,5.5,215.1,62.1,19.052,5.5,215.061,62.084,19.052,5.5,215.105,62.095,19.052,5.5,215.1,62.095,19.052,5.5,215.1,62.095,19.052,5.5,215.1,62.1,19.053,5.5,215.1,62.095,19.052,5.5Z" fill="#3b0606"/>
            </g>
            <g id="Group_10" data-name="Group 10">
              <path id="Path_10" data-name="Path 10" d="M5332.221,2988.436l161.821,46.717v1.584l-167.321-48.3-19.053-5.5-215.1-62.095-19.052-5.5-215.1-62.1-19.052-5.5-215.1-62.095-19.052-5.5-215.1-62.095-19.052-5.5-215.1-62.095-19.052-5.5-215.061-62.084-19.052-5.5-215.1-62.1-19.052-5.5L3474.2,2453.66h5.5l194.414,56.122,19.052,5.5,215.1,62.1,19.052,5.5,215.061,62.084,19.052,5.5,215.1,62.095,19.052,5.5,215.1,62.095,19.052,5.5,215.1,62.095,19.052,5.5,215.1,62.1,19.052,5.5,215.1,62.095Z" fill="#3b0606"/>
            </g>
            <g id="Group_11" data-name="Group 11">
              <path id="Path_11" data-name="Path 11" d="M5400.828,2988.436l93.214,26.906v1.595l-98.714-28.5-19.052-5.5-215.1-62.095-19.052-5.5-215.1-62.1-19.052-5.5-215.1-62.095-19.053-5.5-215.1-62.095-19.052-5.5-215.105-62.095-19.052-5.5-215.061-62.084-19.052-5.5-215.1-62.1-19.052-5.5-194.414-56.122h5.5l194.414,56.122,19.052,5.5,215.1,62.1,19.052,5.5,215.061,62.084,19.052,5.5,215.105,62.095,19.052,5.5,215.1,62.095,19.053,5.5,215.1,62.095,19.052,5.5,215.1,62.1,19.052,5.5,215.1,62.095Z" fill="#3b0606"/>
            </g>
            <g id="Group_12" data-name="Group 12">
              <path id="Path_12" data-name="Path 12" d="M5469.446,2988.436l24.6,7.095v1.595l-30.1-8.69-19.052-5.5-215.1-62.095-19.052-5.5-215.1-62.1-19.052-5.5-215.1-62.095-19.052-5.5-215.105-62.095-19.052-5.5-215.1-62.095-19.052-5.5-215.061-62.084-19.052-5.5-215.1-62.1-19.052-5.5-194.414-56.122h5.5l194.414,56.122,19.052,5.5,215.1,62.1,19.052,5.5,215.061,62.084,19.052,5.5,215.1,62.095,19.052,5.5,215.105,62.095,19.052,5.5,215.1,62.095,19.052,5.5,215.1,62.1,19.052,5.5,215.1,62.095Z" fill="#3b0606"/>
            </g>
            <g id="Group_13" data-name="Group 13">
              <path id="Path_13" data-name="Path 13" d="M5303.907,2920.841l190.135,54.89v1.584l-195.635-56.474-19.052-5.5-215.1-62.1-19.052-5.5-215.105-62.095-19.052-5.5-215.1-62.095-19.053-5.5-215.1-62.095-19.052-5.5-215.061-62.084-19.052-5.5-215.105-62.1-19.052-5.5-194.414-56.122h5.5l194.414,56.122,19.052,5.5,215.105,62.1,19.052,5.5,215.061,62.084,19.052,5.5,215.1,62.095,19.053,5.5,215.1,62.095,19.052,5.5,215.105,62.095,19.052,5.5,215.1,62.1Z" fill="#3b0606"/>
            </g>
            <g id="Group_14" data-name="Group 14">
              <path id="Path_14" data-name="Path 14" d="M5372.524,2920.841l121.518,35.079v1.584l-127.018-36.663-19.052-5.5-215.1-62.1-19.052-5.5-215.1-62.095-19.052-5.5-215.1-62.095-19.052-5.5L4430.4,2650.461l-19.052-5.5-215.061-62.084-19.052-5.5-215.105-62.1-19.052-5.5-194.414-56.122h5.5l194.414,56.122,19.052,5.5,215.105,62.1,19.052,5.5,215.061,62.084,19.052,5.5L4651,2712.556l19.052,5.5,215.1,62.095,19.052,5.5,215.1,62.095,19.052,5.5,215.1,62.1Z" fill="#3b0606"/>
            </g>
            <g id="Group_15" data-name="Group 15">
              <path id="Path_15" data-name="Path 15" d="M5441.132,2920.841l52.91,15.279v1.584l-58.41-16.863-19.052-5.5-215.1-62.1-19.052-5.5-215.105-62.095-19.052-5.5-215.1-62.095-19.053-5.5L4499,2650.461l-19.052-5.5-215.061-62.084-19.052-5.5-215.1-62.1-19.052-5.5-194.414-56.122h5.5l194.414,56.122,19.052,5.5,215.1,62.1,19.052,5.5,215.061,62.084,19.052,5.5,215.1,62.095,19.053,5.5,215.1,62.095,19.052,5.5,215.105,62.095,19.052,5.5,215.1,62.1Z" fill="#3b0606"/>
            </g>
            <g id="Group_16" data-name="Group 16">
              <path id="Path_16" data-name="Path 16" d="M5490.7,2915.341l3.344.968v1.584l-8.844-2.552-215.105-62.1-19.052-5.5-215.1-62.095-19.053-5.5-215.1-62.095-19.052-5.5-215.105-62.095-19.052-5.5-215.062-62.084-19.052-5.5-215.1-62.1-19.052-5.5-194.414-56.122h5.5l194.414,56.122,19.052,5.5,215.1,62.1,19.052,5.5,215.062,62.084,19.052,5.5,215.105,62.095,19.052,5.5,215.1,62.095,19.053,5.5,215.1,62.095,19.052,5.5Z" fill="#3b0606"/>
            </g>
          </g>
          <g id="Group_28" data-name="Group 28">
            <g id="Group_18" data-name="Group 18">
              <path id="Path_17" data-name="Path 17" d="M5420.792,2853.246l73.25,21.142v1.595l-78.75-22.737-19.052-5.5-215.1-62.095-19.052-5.5-215.1-62.095-19.052-5.5-215.1-62.095-19.052-5.5-215.062-62.084-19.052-5.5-215.1-62.1-19.052-5.5-194.414-56.122h5.5L4231,2509.782l19.052,5.5,215.1,62.1,19.052,5.5,215.062,62.084,19.052,5.5,215.1,62.095,19.052,5.5,215.1,62.095,19.052,5.5,215.1,62.095Z" fill="#3b0606"/>
            </g>
            <g id="Group_19" data-name="Group 19">
              <path id="Path_18" data-name="Path 18" d="M5489.411,2853.246l4.631,1.342v1.584l-10.131-2.926-19.053-5.5-215.1-62.095-19.052-5.5-215.1-62.095-19.052-5.5-215.105-62.095-19.052-5.5-215.061-62.084-19.052-5.5-215.1-62.1-19.052-5.5L4099.7,2453.66h5.5l194.414,56.122,19.052,5.5,215.1,62.1,19.052,5.5,215.061,62.084,19.052,5.5,215.105,62.095,19.052,5.5,215.1,62.095,19.052,5.5,215.1,62.095Z" fill="#3b0606"/>
            </g>
            <g id="Group_20" data-name="Group 20">
              <path id="Path_19" data-name="Path 19" d="M5323.861,2785.651l170.181,49.126v1.584l-175.681-50.71-19.052-5.5-215.1-62.095-19.052-5.5-215.105-62.095-19.052-5.5-215.061-62.084-19.052-5.5-215.1-62.1-19.052-5.5-194.414-56.122h5.5l194.414,56.122,19.052,5.5,215.1,62.1,19.052,5.5,215.061,62.084,19.052,5.5,215.105,62.095,19.052,5.5,215.1,62.095Z" fill="#3b0606"/>
            </g>
            <g id="Group_21" data-name="Group 21">
              <path id="Path_20" data-name="Path 20" d="M5392.479,2785.651l101.563,29.315v1.595l-107.063-30.91-19.052-5.5-215.1-62.095-19.052-5.5-215.105-62.095-19.052-5.5-215.061-62.084-19.052-5.5-215.1-62.1-19.052-5.5-194.414-56.122h5.5l194.414,56.122,19.052,5.5,215.1,62.1,19.052,5.5,215.061,62.084,19.052,5.5,215.105,62.095,19.052,5.5,215.1,62.095Z" fill="#3b0606"/>
            </g>
            <g id="Group_22" data-name="Group 22">
              <path id="Path_21" data-name="Path 21" d="M5461.1,2785.651l32.945,9.515v1.584l-38.445-11.1-19.052-5.5-215.105-62.095-19.052-5.5-215.1-62.095-19.052-5.5-215.061-62.084-19.052-5.5-215.1-62.1-19.052-5.5-194.414-56.122h5.5l194.415,56.122,19.052,5.5,215.1,62.1,19.052,5.5,215.061,62.084,19.052,5.5,215.1,62.095,19.052,5.5,215.105,62.095Z" fill="#3b0606"/>
            </g>
            <g id="Group_23" data-name="Group 23">
              <path id="Path_22" data-name="Path 22" d="M5295.558,2718.056l198.484,57.3v1.584l-203.984-58.883-19.053-5.5-215.1-62.095-19.052-5.5-215.061-62.084-19.052-5.5-215.105-62.1-19.052-5.5-194.414-56.122h5.5l194.414,56.122,19.052,5.5,215.105,62.1,19.052,5.5,215.061,62.084,19.052,5.5,215.1,62.095Z" fill="#3b0606"/>
            </g>
            <g id="Group_24" data-name="Group 24">
              <path id="Path_23" data-name="Path 23" d="M5364.165,2718.056l129.877,37.488v1.595l-135.377-39.083-19.052-5.5-215.1-62.095-19.052-5.5L4890.4,2582.877l-19.053-5.5-215.1-62.1-19.052-5.5-194.415-56.122h5.5l194.415,56.122,19.052,5.5,215.1,62.1,19.053,5.5,215.061,62.084,19.052,5.5,215.1,62.095Z" fill="#3b0606"/>
            </g>
            <g id="Group_25" data-name="Group 25">
              <path id="Path_24" data-name="Path 24" d="M5432.783,2718.056l61.259,17.688v1.584l-66.759-19.272-19.052-5.5-215.1-62.095-19.053-5.5-215.061-62.084-19.052-5.5-215.105-62.1-19.052-5.5L4511.39,2453.66h5.5l194.414,56.122,19.052,5.5,215.105,62.1,19.052,5.5,215.061,62.084,19.053,5.5,215.1,62.095Z" fill="#3b0606"/>
            </g>
            <g id="Group_26" data-name="Group 26">
              <path id="Path_25" data-name="Path 25" d="M5482.349,2712.556l11.693,3.377v1.584l-17.193-4.961-215.1-62.095-19.052-5.5-215.062-62.084-19.052-5.5-215.1-62.1-19.052-5.5-194.414-56.122h5.5l194.414,56.122,19.052,5.5,215.1,62.1,19.052,5.5,215.062,62.084,19.052,5.5Z" fill="#3b0606"/>
            </g>
            <g id="Group_27" data-name="Group 27">
              <path id="Path_26" data-name="Path 26" d="M5335.861,2650.461l158.181,45.661v1.584l-163.681-47.245-19.052-5.5-215.061-62.084-19.052-5.5-215.1-62.1-19.052-5.5-194.414-56.122h5.5l194.414,56.122,19.052,5.5,215.1,62.1,19.052,5.5,215.061,62.084Z" fill="#3b0606"/>
            </g>
          </g>
          <g id="Group_39" data-name="Group 39">
            <g id="Group_29" data-name="Group 29">
              <path id="Path_27" data-name="Path 27" d="M5481.051,2650.461l12.991,3.751v1.584l-18.491-5.335-19.052-5.5-215.061-62.084-19.052-5.5-215.1-62.1-19.052-5.5-194.414-56.122h5.5l194.414,56.122,19.052,5.5,215.1,62.1,19.052,5.5L5462,2644.961Z" fill="#3b0606"/>
            </g>
            <g id="Group_30" data-name="Group 30">
              <path id="Path_28" data-name="Path 28" d="M5315.556,2582.877l178.486,51.524v1.584l-183.986-53.108-19.052-5.5-215.105-62.1-19.052-5.5-194.414-56.122h5.5l194.414,56.122,19.052,5.5,215.105,62.1Z" fill="#3b0606"/>
            </g>
            <g id="Group_31" data-name="Group 31">
              <path id="Path_29" data-name="Path 29" d="M5384.173,2582.877l109.869,31.713v1.6l-115.369-33.308-19.052-5.5-215.1-62.1-19.052-5.5-194.414-56.122h5.5l194.414,56.122,19.052,5.5,215.1,62.1Z" fill="#3b0606"/>
            </g>
            <g id="Group_32" data-name="Group 32">
              <path id="Path_30" data-name="Path 30" d="M5452.792,2582.877l41.25,11.913v1.584l-46.75-13.5-19.053-5.5-215.1-62.1-19.052-5.5-194.415-56.122h5.5l194.415,56.122,19.052,5.5,215.1,62.1Z" fill="#3b0606"/>
            </g>
            <g id="Group_33" data-name="Group 33">
              <path id="Path_31" data-name="Path 31" d="M5287.252,2515.282l206.79,59.7v1.584l-212.29-61.281-19.052-5.5-194.414-56.122h5.5l194.414,56.122Z" fill="#3b0606"/>
            </g>
            <g id="Group_34" data-name="Group 34">
              <path id="Path_32" data-name="Path 32" d="M5355.86,2515.282l138.182,39.886v1.6l-143.682-41.481-19.052-5.5-194.415-56.122h5.5l194.415,56.122Z" fill="#3b0606"/>
            </g>
            <g id="Group_35" data-name="Group 35">
              <path id="Path_33" data-name="Path 33" d="M5424.478,2515.282l69.564,20.086v1.584l-75.064-21.67-19.052-5.5-194.414-56.122h5.5l194.414,56.122Z" fill="#3b0606"/>
            </g>
            <g id="Group_36" data-name="Group 36">
              <path id="Path_34" data-name="Path 34" d="M5493.1,2515.282l.946.275v1.584l-6.446-1.859-19.053-5.5-194.414-56.122h5.5l194.414,56.122Z" fill="#3b0606"/>
            </g>
            <g id="Group_37" data-name="Group 37">
              <path id="Path_35" data-name="Path 35" d="M5348.248,2453.66l145.794,42.086v1.584l-151.294-43.67Z" fill="#3b0606"/>
            </g>
            <g id="Group_38" data-name="Group 38">
              <path id="Path_36" data-name="Path 36" d="M5416.866,2453.66l77.176,22.275v1.595l-82.676-23.87Z" fill="#3b0606"/>
            </g>
          </g>
          <g id="Group_49" data-name="Group 49">
            <g id="Group_40" data-name="Group 40">
              <path id="Path_37" data-name="Path 37" d="M5494.042,3050.531v5.5h-192.1l-19.052-5.5Z" fill="#3b0606"/>
            </g>
            <g id="Group_41" data-name="Group 41">
              <path id="Path_38" data-name="Path 38" d="M5494.042,2982.936v5.5H5067.781l-19.052-5.5Z" fill="#3b0606"/>
            </g>
            <g id="Group_42" data-name="Group 42">
              <path id="Path_39" data-name="Path 39" d="M5494.042,2915.341v5.5H4833.635l-19.052-5.5Z" fill="#3b0606"/>
            </g>
            <g id="Group_43" data-name="Group 43">
              <path id="Path_40" data-name="Path 40" d="M5494.042,2847.746v5.5H4599.478l-19.052-5.5Z" fill="#3b0606"/>
            </g>
            <g id="Group_44" data-name="Group 44">
              <path id="Path_41" data-name="Path 41" d="M5494.042,2780.151v5.5H4365.321l-19.052-5.5Z" fill="#3b0606"/>
            </g>
            <g id="Group_45" data-name="Group 45">
              <path id="Path_42" data-name="Path 42" d="M5494.042,2712.556v5.5H4131.164l-19.052-5.5Z" fill="#3b0606"/>
            </g>
            <g id="Group_46" data-name="Group 46">
              <path id="Path_43" data-name="Path 43" d="M5494.042,2644.961v5.5H3897.007l-19.052-5.5Z" fill="#3b0606"/>
            </g>
            <g id="Group_47" data-name="Group 47">
              <path id="Path_44" data-name="Path 44" d="M5494.042,2577.377v5.5H3662.861l-19.052-5.5Z" fill="#3b0606"/>
            </g>
            <g id="Group_48" data-name="Group 48">
              <path id="Path_45" data-name="Path 45" d="M5494.042,2509.782v5.5H3428.7l-19.052-5.5Z" fill="#3b0606"/>
            </g>
          </g>
        </g>
        <g id="Group_51" data-name="Group 51">
          <path id="Path_46" data-name="Path 46" d="M5353.4,2853.246l140.646,40.6v2.222L5345.7,2853.246l-19.052-5.5-215.1-62.095-19.052-5.5-215.1-62.095-19.052-5.5-215.1-62.095-19.052-5.5-215.061-62.084-19.052-5.5-215.1-62.1-19.052-5.5-162.25-46.838h7.7l162.25,46.838,19.052,5.5,215.1,62.1,19.052,5.5,215.061,62.084,19.052,5.5,215.1,62.095,19.052,5.5,215.1,62.095,19.052,5.5,215.1,62.095Z" fill="#3b0606"/>
        </g>
      </g>
    </g>
    <g id="Group_74" data-name="Group 74">
      <path id="Path_47" data-name="Path 47" d="M5116.764,1908.378s101.194-272.371-32.734-268.083C4957.921,1644.333,5116.764,1908.378,5116.764,1908.378Z" fill="#921b1b"/>
      <g id="Group_62" data-name="Group 62">
        <path id="Path_48" data-name="Path 48" d="M2521.462,2203.124c104.352-335.62-172.04-586.629-172.04-586.629s-73.329,352.541,11.281,451.253S2521.462,2203.124,2521.462,2203.124Z" fill="#921b1b"/>
        <path id="Path_49" data-name="Path 49" d="M2449.513,2167.024c-90.25-331.671-338.44-333.928-338.44-333.928s11.282,148.914,119.582,243.677S2449.513,2167.024,2449.513,2167.024Z" fill="#921b1b"/>
        <path id="Path_50" data-name="Path 50" d="M949.1,2399.419c401.615-433.2,658.829-361,767.13-257.214s329.415,18.05,446.741-90.251S2478.845,2070,2478.845,2070s112.813-410.64,284.289-356.489,45.125,333.927,45.125,333.927,103.788-175.989,293.314-76.714,175.989,424.178,175.989,424.178Z" fill="#921b1b"/>
        <path id="Path_51" data-name="Path 51" d="M5500,1587.762v799.172l-2162.555,4.191c474.594-511.918,778.546-426.6,906.52-303.952s389.28,21.329,527.924-106.656,373.273,21.329,373.273,21.329,133.309-485.254,335.94-421.267A172.49,172.49,0,0,1,5500,1587.762Z" fill="#921b1b"/>
        <path id="Path_52" data-name="Path 52" d="M1841.018,2397.868H1763.49c-8.657-4.257-18.359-9.339-29.216-15.367-101.53-56.408-180.5-323.774-76.714-549.406C1862.864,1939.058,1916.973,2186.481,1841.018,2397.868Z" fill="#921b1b"/>
        <g id="Group_54" data-name="Group 54">
          <path id="Path_53" data-name="Path 53" d="M2542.745,2392.259l-4.457-.721c.753-4.656,77.025-467.159,223.285-607.452l3.126,3.257C2619.522,1926.595,2543.5,2387.618,2542.745,2392.259Z" fill="#921b1b"/>
        </g>
        <g id="Group_55" data-name="Group 55">
          <path id="Path_54" data-name="Path 54" d="M2626.619,2029.725l-.966-2.536c-.32-.836-31.4-85.048,7.452-225.531l4.349,1.2c-34.65,125.274-13.233,205.049-8.461,220.12,21.413-13.07,166.42-101.193,186.629-102.637l.321,4.5c-16.224,1.16-129.415,68.183-187,103.462Z" fill="#921b1b"/>
        </g>
        <g id="Group_56" data-name="Group 56">
          <path id="Path_55" data-name="Path 55" d="M2578.856,2195.567l-1.281-2.777c-.544-1.18-54.224-119.339-36.282-240.443l4.466.661c-16.224,109.472,26.748,216.558,34.68,235.083,16.044-14.231,106.609-93.324,160.828-114.176l1.621,4.213c-57.608,22.151-160.721,114.463-161.755,115.393Z" fill="#921b1b"/>
        </g>
        <g id="Group_57" data-name="Group 57">
          <path id="Path_56" data-name="Path 56" d="M1804.224,2328.879c-.165-2.339-17.845-236.382-132.055-429.2l3.884-2.3c114.763,193.76,132.507,428.834,132.676,431.186Z" fill="#921b1b"/>
        </g>
        <path id="Path_57" data-name="Path 57" d="M2880.46,2394.906c-15.795-279.777,137.631-397.1,223.369-304.6,67.345,72.662,58.663,128.608,58.663,128.608s121.839-58.663,160.2,24.819,15.794,151.169,15.794,151.169Z" fill="#921b1b"/>
        <g id="Group_58" data-name="Group 58">
          <path id="Path_58" data-name="Path 58" d="M3035.834,2352.525l-4.462-2.23c-.509-.255-12.742-6.571-35.359-35.217-5.8-7.342-15.185-15.078-25.122-23.265-28.306-23.327-63.54-52.357-42.821-94.943,7.316-15.036,15.816-22.155,25.151-21.275,30.583,3,61.117,95.25,81.341,172.107Zm-84.166-172.492c-6.894,0-13.462,6.32-19.54,18.813-19.165,39.389,13.137,66,41.632,89.484,10.131,8.347,19.7,16.231,25.8,23.952,13.844,17.542,23.7,26.479,29.082,30.685-37.063-138.709-63.379-161.655-75.86-162.879C2952.41,2180.052,2952.037,2180.033,2951.668,2180.033Z" fill="#921b1b"/>
        </g>
        <g id="Group_59" data-name="Group 59">
          <path id="Path_59" data-name="Path 59" d="M3012.756,2370.089H3005.3c-3.218,0-79.074-.243-96.516-21.326a15.092,15.092,0,0,1-3.471-12.942c2.034-10.66,5.078-16.121,10.185-18.262,11.452-4.789,31.35,8.512,79.423,40.629Zm-92.181-48.972a8.54,8.54,0,0,0-3.33.6c-3.491,1.464-5.8,6.073-7.491,14.945a10.633,10.633,0,0,0,2.51,9.221c13.044,15.765,65.5,18.908,85.365,19.534l-5.214-3.48C2953.1,2335.673,2931.313,2321.117,2920.575,2321.117Z" fill="#921b1b"/>
        </g>
        <g id="Group_60" data-name="Group 60">
          <path id="Path_60" data-name="Path 60" d="M3035.446,2269.024l-2.166-5.682c-32.631-85.518-32.209-164.794-10.039-178.539,4.986-3.087,13.253-4.262,24.335,7.738,36.608,39.659-8.145,165.427-10.068,170.762Zm-5.161-181.735a8.7,8.7,0,0,0-4.665,1.349c-17.466,10.828-21.918,80.807,9.67,167.192,8.49-25.692,39.394-127.269,8.966-160.228C3040.475,2091.5,3035.353,2087.289,3030.285,2087.289Z" fill="#921b1b"/>
        </g>
        <g id="Group_61" data-name="Group 61">
          <path id="Path_61" data-name="Path 61" d="M3050.373,2339.77l8.359-53.515c7.738-49.51,32.335-74.3,52.777-80.986,11.049-3.612,21.326-2.088,27.515,4.075,6.079,6.053,7.427,15.575,3.8,26.811-15.087,46.789-85.083,98.239-88.054,100.407Zm12.815-52.818-6.655,42.607c15.849-12.279,69.5-56.027,82-94.788,3.078-9.541,2.121-17.435-2.694-22.231-4.961-4.941-13.534-6.053-22.927-2.983-19.171,6.272-42.3,29.9-49.725,77.4Z" fill="#921b1b"/>
        </g>
        <path id="Path_62" data-name="Path 62" d="M2927.974,2047.467c-47.007,4.741-70.948,43.19-70.293,48.243-11.032,8.561-23.747,19.107-34.2,28.7,15.056-20.681,22.762-41.208,20.7-65.48-.961-11.82-24.653,16.177-31.622,35.665-5.134,14.671-5.047,38.678.008,39.992-21.229,20.087-45.063,46.847-62.433,71.792,10.915-33.58,18.679-65.739,8.525-94.025-4.192-11.871-25.2,33.1-27.067,61.1-1.707,24.674,8.362,43.122,11.02,43.758-19.029,29.223-34.212,57.117-46.51,91.531-2.161-35.538-10.761-87.575-34.675-114.668-2.612-3-6.8,1.535-7.752,8.4-11.11,76.84,32.179,117.6,39.841,114.155a397.91,397.91,0,0,0-17.272,78.281h2.643a390.165,390.165,0,0,1,17.694-79.522c1,1.366,7.93,1.846,17.529.845,34.661-3.609,57.212-16.256,87.407-31.577,4.461-2.375,5.332-6.479,1.71-7.753-38.551-13.325-73.626,2.752-103.7,29.836,11.758-29.973,20.539-50.308,45.252-88.233,1.038.756,6.1,2.224,13.675,2.971,27.48,2.854,51.127-6.641,76.339-17.525,4.117-1.872,5.6-5.708,2.816-7.2-25.094-13.5-55.931-7.893-85.356,11,17.266-24.789,41.033-51.476,62.22-71.5a2.775,2.775,0,0,0,2.148,2.51c24.19,6.971,47.775,3.363,73.376-11.124,2.971-1.711,3.307-5.095.574-6.37-21.8-10.1-44.361-7.4-66.5,6,10.5-9.7,24.279-21.14,35.155-29.563a4.2,4.2,0,0,0,2.68.093c28.3-7.387,49.977-21.487,68.815-45.083C2932.933,2050.018,2931.6,2047.14,2927.974,2047.467Z" fill="#921b1b"/>
        <path id="Path_63" data-name="Path 63" d="M1989.733,2303.635c22.875.716,40.714-2.687,62.356-13.487a3.228,3.228,0,0,0,1.482-1.37,251.26,251.26,0,0,1,34.5-.751c-19.619,2.834-33.322,12.652-39.8,28.189-3.283,8.007,23.012-2.818,30.771-7.424a72.615,72.615,0,0,0,20.275-17.752,1.869,1.869,0,0,0,.254-2.116c21.676,1.947,48.626,9.316,69.821,21.519-11.813-2.723-25.717-3.2-36.326.34-17.008,5.261-31.751,22.976-19.958,21.633,8.076-1.217,36.324-2.827,55.9-11.375,5.491-2.378,8.971-4.44,9.143-5.413,20.589,14.4,27.8,21.778,39.911,36.47a225.62,225.62,0,0,1,14.5,20.521c-45.786-33.508-90.4,1.19-74.613,2.4,6.254.26,40.567,6.482,55.757,6.574,13.622.7,21.738-2.052,22.025-3.4,3.161,5.577,5.953,11.143,8.59,16.714h1.914c-2.989-6.508-6.236-12.918-9.77-19.074,4.513.513,24.689-27.58,11.192-67.557-10.441-29.455-19.151-35.113-20.469-30.6-5.708,18.653-2.188,41.993,5.708,91.945-20.091-29.261-30.751-39.408-53.851-55.567,3.077-4.513,6.715-37.792-40.69-65.022-4.166-2.231-8.537-2.089-8.093.247,3.981,20.919,22.6,38.818,39.937,59.548-21.325-12.287-48.309-19.695-70.618-21.714a1.841,1.841,0,0,0,.384-2.331c-15.212-30.819-65.279-31.123-58.488-23.677,12.4,13.822,28.255,20.594,47.846,25.162a258.35,258.35,0,0,0-35.922.714,3.155,3.155,0,0,0-1.726-1.046C2012.637,2275.108,1977.371,2303.337,1989.733,2303.635Z" fill="#921b1b"/>
        <path id="Path_64" data-name="Path 64" d="M1830.219,2262.027c-20.252,44.866-34.109,90.829-41.421,132.879h3.016a551.392,551.392,0,0,1,41.812-133.843c2.706,4.512,42.753,6.921,90.11-14.308,10.473-4.347,19.116-8.844,25.472-12.057,5.065-2.544,6.37-7.089,2.5-8.561-40.632-15.263-79.225-.1-114.076,26.069a621.373,621.373,0,0,1,53.633-90.924c4.513,3.545,36.953,12.9,96.924-15.389,4.491-2.1,6.131-6.257,3.1-7.807-27.433-14.109-60.08-7.448-91.891,11.894,21.647-28.55,40.738-51.19,65.818-76.37a2.991,2.991,0,0,0,2.369,2.629c26.1,6.989,51.332,2.223,78.113-14.535,3.135-1.943,3.322-5.6.339-6.82-23.9-9.838-47.773-6-70.883,8.908,16.544-15.956,29.8-27.221,36.22-32.734a4.468,4.468,0,0,0,2.844-.03c29.847-9,52.142-25.339,70.619-51.6,2.172-3.014.552-6-3.275-5.441-50.364,7.888-72.739,50.494-71.935,55.007-19.239,16.524-22.556,19.837-35.221,31.748,15.323-22.44,22.42-44.722,18.945-70.367-.451-3.307-4.308-3.633-7.222-.6-7.322,7.57-19.191,22.306-24.495,39.57-5.5,17.64-3.023,41.441,1.491,42.526-24.768,24.837-44.59,48.388-65.975,76.6,12.236-35.444,19.719-69.669,8.013-99.547-4.832-12.268-25.4,34.852-27.536,64.235-1.8,25.906,8.579,45.959,11.347,46.681-19.757,27.924-40.131,61.65-55.126,94.169-.057-39.753-4.8-91.994-30.6-122.478-2.7-3.253-7.229,1.091-8.405,8.062C1781.758,2224.354,1823.663,2264.066,1830.219,2262.027Z" fill="#921b1b"/>
      </g>
      <g id="Group_73" data-name="Group 73">
        <g id="Group_66" data-name="Group 66">
          <path id="Path_65" data-name="Path 65" d="M339.844,2174.859c-100.732-262.87,88.9-375.373,88.9-375.373s113.4,153.881-21.719,390.968S339.844,2174.859,339.844,2174.859Z" fill="#921b1b"/>
          <path id="Path_66" data-name="Path 66" d="M273.869,2262.113c72.315-347.966-241.981-466.837-241.981-466.837s-30.839,97.748-28.065,225.01,187.421,287.453,187.421,287.453Z" fill="#921b1b"/>
          <g id="Group_63" data-name="Group 63">
            <path id="Path_67" data-name="Path 67" d="M212.094,2348.008a1.951,1.951,0,0,0,.363-.026,1.984,1.984,0,0,0,1.651-2.272c-.465-2.919-47.7-293.991-158.738-495.5a1.986,1.986,0,1,0-3.48,1.916c110.708,200.91,157.831,491.3,158.293,494.206A1.988,1.988,0,0,0,212.094,2348.008Z" fill="#921b1b"/>
          </g>
          <g id="Group_64" data-name="Group 64">
            <path id="Path_68" data-name="Path 68" d="M152.063,2086.744l.852-1.71c.3-.594,29.429-60.541,18.029-157.672a2.019,2.019,0,0,0-2.206-1.744,1.984,1.984,0,0,0-1.741,2.2c10.176,86.7-12.239,143.23-16.839,153.689-15.4-7.16-124.665-59.155-141.666-101.1A1.986,1.986,0,1,0,4.81,1981.9c18.8,46.383,140.344,101.721,145.508,104.055Z" fill="#921b1b"/>
          </g>
          <g id="Group_65" data-name="Group 65">
            <path id="Path_69" data-name="Path 69" d="M188.176,2220.4l.773-.8c2.022-2.081,49.542-52.546,52.906-186.835a1.987,1.987,0,1,0-3.972-.1c-3.094,123.481-44.951,176.3-51.05,183.344-12.266-2.966-120.611-30.926-152.025-97.9a1.987,1.987,0,0,0-3.6,1.687c33.981,72.44,154.668,100.089,155.882,100.36Z" fill="#921b1b"/>
          </g>
        </g>
        <path id="Path_70" data-name="Path 70" d="M.712,2288.3,0,2407.681l249,4.129c126.93-.65,292.13-2.056,470.929-5.082q19.4-.312,39.032-.678,35.091-.627,70.71-1.34h.018c.963-.011,1.889-.04,2.852-.05,87.548-1.773,177.025-3.948,265.76-6.62-47.061-95.055-118.884-104.728-173.46-95-1.819.313-3.619.662-5.384,1.048h-.018q-6.9,1.391-13.336,3.147c-5.6,1.5-10.921,3.148-15.892,4.853a286.958,286.958,0,0,0-28.967,11.779c-3.791,1.769-7.49.959-11.208-2.048a25.977,25.977,0,0,1-3.262-3.149c-6.535-7.351-13.223-20.933-20.641-38.406v-.019c-18.209-42.928-40.722-109.371-75.922-165.034-32.813-51.885-76.669-94.377-138.283-99.667-174.517-14.974-213.784,177.479-213.784,177.479s-209.127-113.892-318.108,5.269C42.883,2238.919,17.724,2267.836.712,2288.3Z" fill="#921b1b"/>
        <g id="Group_70" data-name="Group 70">
          <g id="Group_67" data-name="Group 67">
            <path id="Path_71" data-name="Path 71" d="M588.7,2408.642l-.444-3.792c-.181-1.534-17.459-155.266,26.292-336.5a1.987,1.987,0,1,0-3.862-.935c-40.1,166.121-29.117,309.265-26.764,334.1-20.516-11.367-130.2-73.574-153.888-116.62a1.988,1.988,0,0,0-3.483,1.916c26.589,48.32,153.4,117.112,158.789,120.018Z" fill="#921b1b"/>
          </g>
          <g id="Group_68" data-name="Group 68">
            <path id="Path_72" data-name="Path 72" d="M586.525,2409.43l1.57-3.548c.8-1.8,80.331-180.232,134.965-198.216a1.986,1.986,0,1,0-1.241-3.773c-52.591,17.31-123.914,170.647-135.765,196.83-15.329-26.666-116.114-204.876-117.784-282.887a1.9,1.9,0,0,0-2.03-1.941,1.985,1.985,0,0,0-1.943,2.027c1.822,85.041,115.433,279.91,120.268,288.163Z" fill="#921b1b"/>
          </g>
          <g id="Group_69" data-name="Group 69">
            <path id="Path_73" data-name="Path 73" d="M586.9,2407.087c8.226.206,84.94.591,137.25-52.845a1.986,1.986,0,1,0-2.838-2.78c-53.809,54.966-134.114,51.623-134.933,51.633a1.909,1.909,0,0,0-2.083,1.889,1.99,1.99,0,0,0,1.887,2.081C586.221,2407.066,586.466,2407.076,586.9,2407.087Z" fill="#921b1b"/>
          </g>
        </g>
        <g id="Group_72" data-name="Group 72">
          <path id="Path_74" data-name="Path 74" d="M719.939,2406.728q19.4-.312,39.032-.678a251.6,251.6,0,0,0,67.754-53.357,232.224,232.224,0,0,0,21.1-27.423c.754-1.138,1.489-2.276,2.224-3.451,37.673-59.511,58.384-151.77,11.922-291.405-44.392,17.453-82.708,47.375-111.747,84.8C688.733,2194.351,668.645,2307.1,719.939,2406.728Z" fill="#921b1b"/>
          <g id="Group_71" data-name="Group 71">
            <path id="Path_75" data-name="Path 75" d="M737.873,2383.042a1.985,1.985,0,0,0,1.986-1.549c.38-1.675,38.7-169.37,102.959-307.043a1.986,1.986,0,0,0-3.6-1.682c-64.449,138.068-102.856,306.169-103.235,307.851a1.985,1.985,0,0,0,1.5,2.375A1.964,1.964,0,0,0,737.873,2383.042Z" fill="#921b1b"/>
          </g>
        </g>
        <path id="Path_76" data-name="Path 76" d="M822.15,2338.456a83.929,83.929,0,0,0,4.575,14.237c6.723,15.961,16.752,26.971,18.947,27.315-4.224,6.051-8.046,11.815-11.5,17.236-1.527,2.586-3.035,5.062-4.471,7.466.963-.011,1.889-.04,2.852-.05.994-1.645,2.023-3.344,3.036-5.1,3.257-5.423,7.15-10.95,11.137-16.985.461,1.4,10.427,6.692,26.8,9.978,4.08.831,8.542,1.556,13.314,2.12,4.79.581,10.052,1.113,15.481,1.355,5.409.259,11.093.3,17.16.278,5.957-.081,12.116-.433,18.621-.873,3.742-.261,4.672-3.014,1.8-5.18-7.186-5.286-21.208-14.565-40.4-17.765a93.09,93.09,0,0,0-27.6-.051,90.136,90.136,0,0,0-21.8,5.552s2.625-3.54,6.57-8.848c4.2-5.125,9.61-12.093,15.6-18.567,2.895-3.355,5.916-6.546,8.845-9.484,2.892-2.937,5.512-5.786,7.981-8,4.811-4.539,8.03-7.547,8.03-7.547,1.109,2.242,17.954,10.4,35.1,12.8a140.42,140.42,0,0,0,37.326-.655c3.163-.393,4.292-3.108,2.146-5.086-19.329-17.948-43.662-20.661-67.748-13,0,0,.768-.666,2.122-1.836,1.334-1.206,3.326-2.789,5.739-4.7,3.546-2.95,8.149-6.438,13.044-10.032,1.589-1.168,3.215-2.354,4.858-3.522,13.313-9.5,27.6-17.474,27.6-17.474a3.494,3.494,0,0,0,1.433,2.426c5.38,4.092,15.516,10.89,26.97,13.9a61.488,61.488,0,0,0,27.364.594c2.237-.4,2.767-3.175.966-5.15-14.01-15.345-30.224-20.465-47.76-16.715,0,0,1.7-.913,4.23-2.256,2.571-1.287,6-2.986,9.427-4.684,3.48-1.59,6.961-3.2,9.568-4.394,2.642-1.123,4.409-1.872,4.409-1.872a3.3,3.3,0,0,0,1.936.923c22.152,2.9,38.124-2.919,53.869-17.017a3.139,3.139,0,0,0-1.01-5.492c-21.829-7.034-41.9.256-55.016,17.352a3.36,3.36,0,0,0-.706,2.047s-1.841.767-4.592,1.944c-2.716,1.25-6.324,2.911-9.951,4.572-3.555,1.789-7.129,3.559-9.809,4.9l-4.358,2.345c13.208-12.465,21.244-27.712,22.651-49.8.185-2.759-2.455-4.268-4.954-2.816-21.293,12.837-29.925,32.239-27.354,54.4a3.366,3.366,0,0,0,1.65,2.646s-3.594,2.006-8.885,5.216c-2.609,1.632-5.658,3.551-8.942,5.6-3.2,2.173-6.591,4.489-10.005,6.806-3.068,2.209-6.118,4.438-8.968,6.577h-.018c-3.379,2.534-6.5,4.962-9.081,7.085-2.412,1.906-4.441,3.506-5.775,4.713-1.353,1.188-2.14,1.854-2.14,1.854,1.3-3.477,2.543-6.972,3.66-10.5,6.735-20.669,10.223-41.981,3.13-64.047-.94-2.858-4.687-2.125-6.93,1.454-5.771,8.781-14.164,25.5-15.33,42.377a66.9,66.9,0,0,0,3.238,25.069c2.093,6.481,4.566,10.75,5.358,11.61,0,0-3.128,2.972-7.848,7.4-2.4,2.179-5,4.919-7.816,7.821-2.837,2.884-5.875,5.947-8.68,9.231a321.911,321.911,0,0,0-21.8,26.727c.6-16.377.691-32.866-1.543-49.173a3.688,3.688,0,0,0-.07-.437q-.437-3.3-1.038-6.6c-2.471-13.858-6.761-27.4-14.363-40.119-1.56-2.628-4.509-1.615-6.278,1.694v.019a11.185,11.185,0,0,0-.926,2.317C821.451,2295.046,817.551,2317.9,822.15,2338.456Z" fill="#921b1b"/>
        <path id="Path_77" data-name="Path 77" d="M256.706,1916.6a233.484,233.484,0,0,0,13.954,35.048,153.432,153.432,0,0,0,15.881,26.1,156.2,156.2,0,0,0,16.251,18.588c20.97,20.252,38.316,24.482,40.4,23.111-8.177,60.623-8.454,105.924-8.941,139.226.031,2.565.059,4.931.088,7.358l4.033-.038c-.04-2.79-.081-5.556-.124-8.528.533-33.629.558-79.431,9.149-140.588,3.631,3.4,41.472-4.624,74.111-24.53,15.125-8.634,28.485-19.069,40.364-28.474,12.207-9.229,21.552-18.2,28.859-24.144,5.679-4.8,5.544-10.885-.168-11.518A130.31,130.31,0,0,0,451,1930c-13.021,2.556-25.038,7.471-37.145,14a151.022,151.022,0,0,0-17.681,11.218,213.973,213.973,0,0,0-16.5,13.94,211.368,211.368,0,0,0-15.8,16.228q-7.354,8.727-14.378,18.4l3.563-22.248c1.372-6.617,2.974-14.337,4.69-22.608.865-4.134,1.76-8.406,2.669-12.746.945-4.332,2.212-8.659,3.311-13.027,8.314-35.112,21.348-68.763,21.348-68.763,1.741.731,9.705,1.231,20.853-.127a168.827,168.827,0,0,0,40.614-10.377,289.059,289.059,0,0,0,35.916-18.068c10.895-6.058,19.934-11.921,26.409-16.064,5.252-3.183,6.1-8.6,1.684-10.2a94.935,94.935,0,0,0-30.385-5.562,98.473,98.473,0,0,0-30.368,4.925c-20.252,6.544-39.851,19.875-57.916,37.762l8.586-19.688c2.4-5.988,6.115-12.544,9.621-19.79,1.83-3.587,3.618-7.348,5.621-11.068l6.358-11.125,6.359-11.124c2.293-3.55,4.55-7.043,6.733-10.424s4.294-6.648,6.3-9.746c2.05-3.065,4.182-5.83,6.046-8.454l9.161-12.573,3.716-4.582a4.257,4.257,0,0,0,3.7,3.263c36.776,5.734,69.219-1.407,102.2-20.224,3.893-2.126,4.048-6.847.16-8.922-30.915-16.315-64.135-11.62-93.979,11.212l6.953-7.705c4.057-4.734,9.927-10.6,15.832-16.441,5.735-6.013,12.2-11.25,16.729-15.523,2.269-2.134,4.355-3.684,5.74-4.858l2.208-1.806a6.11,6.11,0,0,0,3.912.082c20.379-5.6,38.189-12.563,54.734-21.821,16.61-9.2,31.7-21.031,48.1-35.168,3.788-3.157,2.964-7.84-2.431-8.515-43.848-4.509-85.151,18.91-105.973,58.624a6.074,6.074,0,0,0-.737,3.884s-3.212,2.483-7.775,6.5c-4.435,4.159-10.711,9.327-16.375,15.133-5.717,5.75-11.572,11.37-15.521,16l-6.79,7.525c18.155-32.407,27.924-63.036,25.474-99.863-.27-4.7-5.937-5.282-10.5-.892-11.352,10.989-29.331,33.048-35.9,58.17-3.024,12.758-3.494,24.022-2.21,33.713a95.249,95.249,0,0,0,5.841,22.724,4.236,4.236,0,0,0,3.454,2.815l-3.744,4.619-9.214,12.674c-3.933,5.164-8.071,11.495-12.416,18.337l-6.768,10.5c-2.111,3.694-4.255,7.446-6.4,11.2s-4.287,7.505-6.4,11.2c-1.921,3.793-3.813,7.528-5.644,11.14-3.536,7.286-7.25,13.893-9.668,19.912l-8.634,19.8c2.281-25.517,3.093-50.559,1.506-74.015-2.033-23.626-6.348-45.707-17.518-65.677-2.43-4.423-8.588.085-11.444,8.4-7.755,20.621-15.622,58.346-10.65,90.013,5.678,36.167,27.395,59.114,31.252,59.134,0,0-.818,2.184-2.248,6.005-1.449,3.814-3.547,9.255-5.539,15.962-2.108,6.668-4.568,14.446-7.205,22.78-2.357,8.414-4.609,17.463-7,26.473-2.553,8.973-4.221,18.152-6.059,26.693-1.694,8.569-3.68,16.494-4.675,23.415-2.21,13.8-3.684,23-3.684,23-6.254-20.753-21.316-60.6-38.029-91.118-18.5-32.488-38.971-51.305-51.284-59.7-4.84-3.4-9.343,4.353-8.337,14.355A308.355,308.355,0,0,0,256.706,1916.6Z" fill="#921b1b"/>
        <path id="Path_78" data-name="Path 78" d="M256.449,2258.759c-20.9-9.137-44.09-6.455-63.019,7.466a3.234,3.234,0,0,0-1.231,1.68s-8.274,1.959-16.416,4.41c-4.074,1.209-8.086,2.62-11.123,3.589-3.029.992-5,1.8-5,1.8,16.488-10.415,28.215-22.513,34.776-40.47.848-2.308-1.593-3.822-4.584-2.821-7.448,2.584-20.438,8.373-29.345,18.433a48.175,48.175,0,0,0-9.222,14.9,47.037,47.037,0,0,0-3.08,11.88,2.24,2.24,0,0,0,.86,2.183s-4.2,1.716-10.4,4.5l-10.47,5.038-11.713,6.343a275.845,275.845,0,0,0-30.125,20.158c15.185-22.269,29.024-43.9,29.482-67.5.045-2.622-3.913-2.292-7.366.618-8.525,7.571-22.471,21.924-28.511,37.973-7.057,18.058-3.31,34.06-1.486,35.134l-9.255,8.011c-5.307,5.068-12.493,11.743-18.922,19.139-1.642,1.815-3.285,3.629-4.9,5.415l-4.437,5.511c-2.819,3.62-5.7,6.813-7.734,9.872L26.15,2382c.5-2.793.98-6.283,1.4-10.27.184-1.984.381-4.1.587-6.325.233-2.147.477-4.4.729-6.727.461-4.629.835-9.54,1.049-14.492.3-4.881.583-9.7.5-14.364a129.967,129.967,0,0,0-2.784-25.318,75.2,75.2,0,0,0-5.3-15.763c-1.332-2.839-5.488-.255-7.673,4.786C7.318,2310.806,4.7,2325.7,4.415,2337.912c-.093,3.042-.057,5.908.085,8.608.209,2.743.562,5.344.968,7.77A77.2,77.2,0,0,0,8.7,2367.01a50.314,50.314,0,0,0,8.478,15.641c2.7,3.275,4.835,4.721,5.491,4.608-4.195,6.841-8.353,13.1-11.515,19.367-.52.956-1.023,1.883-1.533,2.818l2.291-.021c3.843-7.072,8.208-14.523,13.284-22.47.894,2.41,20.8,7.006,40.406,5.862,17.915-.772,34.373-4.434,43.695-5.795,3.641-.644,4.937-3.379,2.52-5.159a66.957,66.957,0,0,0-18.294-9.463,68.467,68.467,0,0,0-10.043-2.51,72.2,72.2,0,0,0-10.338-.752,87.24,87.24,0,0,0-10.859.671,90.867,90.867,0,0,0-10.939,2.376,94.388,94.388,0,0,0-11.188,3.76q-5.458,2.35-11.025,5.282l6.828-9.634c2.151-2.813,4.794-5.992,7.555-9.454,2.693-3.52,5.865-7.017,9.073-10.484,3.164-3.508,6.324-7.017,9.576-10.028,3.2-3.057,6.066-6.042,8.732-8.372l8.926-7.725c1.117,1.554,14.14,9.143,30.632,11.53,14.537,2.282,29.124,1.448,37.4,1.239,3.212-.222,5.119-2.437,3.524-4.317A48.276,48.276,0,0,0,139,2323.547a49.963,49.963,0,0,0-15.157-5.9c-10.875-2.355-23.419-1.8-36.2,1.716a274.429,274.429,0,0,1,29.949-20.019l11.644-6.3,10.409-5.007c6.174-2.751,10.345-4.465,10.345-4.465a2.253,2.253,0,0,0,.858,2.454c15.442,12.276,32.529,16.94,53.842,15.291,2.495-.152,3.723-2.438,2.274-4.264-11.582-14.6-28.2-20.116-47.667-17.091l5.115-1.888,11.409-3.707c4.2-1.169,8.372-2.466,11.554-3.23l5.295-1.306a3.155,3.155,0,0,0,1.829.926c21.951,4.165,40.811,1.831,61.857-7.345C258.786,2262.4,259.005,2259.915,256.449,2258.759Z" fill="#921b1b"/>
        <path id="Path_79" data-name="Path 79" d="M762.658,2213.413c-.312,12.456,9.366,22.8,9.366,22.8s10.183-9.849,10.5-22.305-9.366-22.8-9.366-22.8S762.97,2200.957,762.658,2213.413Z" fill="#921b1b"/>
        <path id="Path_80" data-name="Path 80" d="M922.226,2164.469c-7.837,20.93-1.034,42.824-1.034,42.824s19.511-12.04,27.349-32.97,1.034-42.824,1.034-42.824S930.064,2143.539,922.226,2164.469Z" fill="#921b1b"/>
        <path id="Path_81" data-name="Path 81" d="M964.57,2049.457c-6.293,12.655-1.646,27.762-1.646,27.762s14.852-5.41,21.145-18.064,1.646-27.762,1.646-27.762S970.864,2036.8,964.57,2049.457Z" fill="#921b1b"/>
        <path id="Path_82" data-name="Path 82" d="M902.774,2076.014c-2.064,15.241,7.037,29.056,7.037,29.056s12.449-10.9,14.513-26.137-7.037-29.056-7.037-29.056S904.839,2060.772,902.774,2076.014Z" fill="#921b1b"/>
      </g>
    </g>
    <g id="Group_88" data-name="Group 88">
      <rect id="Rectangle_4" data-name="Rectangle 4" width="1082.995" height="737.592" transform="translate(1075.964 183.172)" fill="#fff" opacity="0.37"/>
      <g id="Group_75" data-name="Group 75">
        <path id="Path_83" data-name="Path 83" d="M2185.4,946.913H1062.214V169.422H2185.4Zm-1095.687-27.5H2157.9V196.922H1089.714Z" fill="#fff"/>
      </g>
      <g id="Group_76" data-name="Group 76">
        <path id="Path_84" data-name="Path 84" d="M1844.183,946.913h-440.75V169.422h440.75Zm-413.25-27.5h385.75V196.922h-385.75Z" fill="#fff"/>
      </g>
      <g id="Group_77" data-name="Group 77">
        <path id="Path_85" data-name="Path 85" d="M1781.518,862.134H1466.1V546.714h315.42Zm-293.42-22h271.42V568.714H1488.1Z" fill="#fff"/>
      </g>
      <g id="Group_82" data-name="Group 82">
        <g id="Group_78" data-name="Group 78">
          <path id="Path_86" data-name="Path 86" d="M1718.173,1137.73H1573.62l-89.561-273.955h323.675Zm-136.576-11h128.6l82.369-251.955H1499.228Z" fill="#fff"/>
        </g>
        <g id="Group_79" data-name="Group 79">
          <path id="Path_87" data-name="Path 87" d="M1695.805,1137.735h-99.817l-59.659-272.856h219.135Zm-90.962-11h82.107L1741.8,875.879h-191.8Z" fill="#fff"/>
        </g>
        <g id="Group_80" data-name="Group 80">
          <path id="Path_88" data-name="Path 88" d="M1673.979,1137.73h-56.165L1595.4,863.775h101Zm-46.028-11h35.891l20.617-251.955h-77.126Z" fill="#fff"/>
        </g>
        <g id="Group_81" data-name="Group 81">
          <rect id="Rectangle_5" data-name="Rectangle 5" width="11" height="260.751" transform="translate(1640.396 870.379)" fill="#fff"/>
        </g>
      </g>
      <rect id="Rectangle_6" data-name="Rectangle 6" width="360.8" height="29.292" transform="translate(1465.496 839.987)" fill="#20364c"/>
      <g id="Group_83" data-name="Group 83">
        <rect id="Rectangle_7" data-name="Rectangle 7" width="157.706" height="11" transform="translate(1567.043 1093.313)" fill="#fff"/>
      </g>
      <g id="Group_84" data-name="Group 84">
        <rect id="Rectangle_8" data-name="Rectangle 8" width="180.288" height="11" transform="translate(1556.761 1055.475)" fill="#fff"/>
      </g>
      <g id="Group_85" data-name="Group 85">
        <rect id="Rectangle_9" data-name="Rectangle 9" width="202.288" height="11" transform="translate(1545.761 1017.638)" fill="#fff"/>
      </g>
      <g id="Group_86" data-name="Group 86">
        <rect id="Rectangle_10" data-name="Rectangle 10" width="230.999" height="11" transform="translate(1529.934 978.7)" fill="#fff"/>
      </g>
      <g id="Group_87" data-name="Group 87">
        <path id="Path_89" data-name="Path 89" d="M1061.005,527.219v49.5H614.471C427.6,579.4,270.842,633.248,161.128,732.435c-51.249,46.321-90.893,101.4-117.843,163.7-26.9,62.172-40.524,130.108-40.524,201.927h-1.2V868.142c29.645-65.417,72.127-123.4,126.368-172.436C246.741,588.313,414.8,530.046,613.954,527.219Z" fill="#20364c"/>
      </g>
    </g>
    <g id="Group_160" data-name="Group 160">
      <g id="Group_89" data-name="Group 89">
        <rect id="Rectangle_11" data-name="Rectangle 11" width="2310.121" height="32.758" transform="translate(3185.383 346.742)" fill="#fff"/>
      </g>
      <g id="Group_90" data-name="Group 90">
        <rect id="Rectangle_12" data-name="Rectangle 12" width="32.758" height="2090" transform="translate(3169.004 346.742)" fill="#fff"/>
      </g>
      <g id="Group_91" data-name="Group 91">
        <rect id="Rectangle_13" data-name="Rectangle 13" width="2090" height="32.758" transform="translate(3931.599 2436.742) rotate(-90)" fill="#fff"/>
      </g>
      <g id="Group_92" data-name="Group 92">
        <rect id="Rectangle_14" data-name="Rectangle 14" width="2090" height="32.758" transform="translate(4694.19 2436.742) rotate(-90)" fill="#fff"/>
      </g>
      <g id="Group_93" data-name="Group 93">
        <rect id="Rectangle_15" data-name="Rectangle 15" width="2090" height="32.758" transform="translate(5456.781 2436.742) rotate(-90)" fill="#fff"/>
      </g>
      <g id="Group_158" data-name="Group 158">
        <g id="Group_104" data-name="Group 104">
          <g id="Group_94" data-name="Group 94">
            <rect id="Rectangle_16" data-name="Rectangle 16" width="5.5" height="2021.492" transform="translate(3254.873 379.5)" fill="#fff"/>
          </g>
          <g id="Group_95" data-name="Group 95">
            <rect id="Rectangle_17" data-name="Rectangle 17" width="5.5" height="2021.492" transform="translate(3323.488 379.5)" fill="#fff"/>
          </g>
          <g id="Group_96" data-name="Group 96">
            <rect id="Rectangle_18" data-name="Rectangle 18" width="5.5" height="2021.492" transform="translate(3392.104 379.5)" fill="#fff"/>
          </g>
          <g id="Group_97" data-name="Group 97">
            <rect id="Rectangle_19" data-name="Rectangle 19" width="5.5" height="2021.492" transform="translate(3460.719 379.5)" fill="#fff"/>
          </g>
          <g id="Group_98" data-name="Group 98">
            <rect id="Rectangle_20" data-name="Rectangle 20" width="5.5" height="2021.492" transform="translate(3529.334 379.5)" fill="#fff"/>
          </g>
          <g id="Group_99" data-name="Group 99">
            <rect id="Rectangle_21" data-name="Rectangle 21" width="5.5" height="2021.492" transform="translate(3597.95 379.5)" fill="#fff"/>
          </g>
          <g id="Group_100" data-name="Group 100">
            <rect id="Rectangle_22" data-name="Rectangle 22" width="5.5" height="2021.492" transform="translate(3666.566 379.5)" fill="#fff"/>
          </g>
          <g id="Group_101" data-name="Group 101">
            <rect id="Rectangle_23" data-name="Rectangle 23" width="5.5" height="2021.492" transform="translate(3735.182 379.5)" fill="#fff"/>
          </g>
          <g id="Group_102" data-name="Group 102">
            <rect id="Rectangle_24" data-name="Rectangle 24" width="5.5" height="2021.492" transform="translate(3803.796 379.5)" fill="#fff"/>
          </g>
          <g id="Group_103" data-name="Group 103">
            <rect id="Rectangle_25" data-name="Rectangle 25" width="5.5" height="2021.492" transform="translate(3872.412 379.5)" fill="#fff"/>
          </g>
        </g>
        <g id="Group_115" data-name="Group 115">
          <g id="Group_105" data-name="Group 105">
            <rect id="Rectangle_26" data-name="Rectangle 26" width="5.5" height="2021.492" transform="translate(4017.609 379.5)" fill="#fff"/>
          </g>
          <g id="Group_106" data-name="Group 106">
            <rect id="Rectangle_27" data-name="Rectangle 27" width="5.5" height="2021.492" transform="translate(4086.225 379.5)" fill="#fff"/>
          </g>
          <g id="Group_107" data-name="Group 107">
            <rect id="Rectangle_28" data-name="Rectangle 28" width="5.5" height="2021.492" transform="translate(4154.84 379.5)" fill="#fff"/>
          </g>
          <g id="Group_108" data-name="Group 108">
            <rect id="Rectangle_29" data-name="Rectangle 29" width="5.5" height="2021.492" transform="translate(4223.455 379.5)" fill="#fff"/>
          </g>
          <g id="Group_109" data-name="Group 109">
            <rect id="Rectangle_30" data-name="Rectangle 30" width="5.5" height="2021.492" transform="translate(4292.071 379.5)" fill="#fff"/>
          </g>
          <g id="Group_110" data-name="Group 110">
            <rect id="Rectangle_31" data-name="Rectangle 31" width="5.5" height="2021.492" transform="translate(4360.687 379.5)" fill="#fff"/>
          </g>
          <g id="Group_111" data-name="Group 111">
            <rect id="Rectangle_32" data-name="Rectangle 32" width="5.5" height="2021.492" transform="translate(4429.302 379.5)" fill="#fff"/>
          </g>
          <g id="Group_112" data-name="Group 112">
            <rect id="Rectangle_33" data-name="Rectangle 33" width="5.5" height="2021.492" transform="translate(4497.918 379.5)" fill="#fff"/>
          </g>
          <g id="Group_113" data-name="Group 113">
            <rect id="Rectangle_34" data-name="Rectangle 34" width="5.5" height="2021.492" transform="translate(4566.532 379.5)" fill="#fff"/>
          </g>
          <g id="Group_114" data-name="Group 114">
            <rect id="Rectangle_35" data-name="Rectangle 35" width="5.5" height="2021.492" transform="translate(4635.148 379.5)" fill="#fff"/>
          </g>
        </g>
        <g id="Group_126" data-name="Group 126">
          <g id="Group_116" data-name="Group 116">
            <rect id="Rectangle_36" data-name="Rectangle 36" width="5.5" height="2021.492" transform="translate(4780.345 379.5)" fill="#fff"/>
          </g>
          <g id="Group_117" data-name="Group 117">
            <rect id="Rectangle_37" data-name="Rectangle 37" width="5.5" height="2021.492" transform="translate(4848.96 379.5)" fill="#fff"/>
          </g>
          <g id="Group_118" data-name="Group 118">
            <rect id="Rectangle_38" data-name="Rectangle 38" width="5.5" height="2021.492" transform="translate(4917.576 379.5)" fill="#fff"/>
          </g>
          <g id="Group_119" data-name="Group 119">
            <rect id="Rectangle_39" data-name="Rectangle 39" width="5.5" height="2021.492" transform="translate(4986.191 379.5)" fill="#fff"/>
          </g>
          <g id="Group_120" data-name="Group 120">
            <rect id="Rectangle_40" data-name="Rectangle 40" width="5.5" height="2021.492" transform="translate(5054.807 379.5)" fill="#fff"/>
          </g>
          <g id="Group_121" data-name="Group 121">
            <rect id="Rectangle_41" data-name="Rectangle 41" width="5.5" height="2021.492" transform="translate(5123.422 379.5)" fill="#fff"/>
          </g>
          <g id="Group_122" data-name="Group 122">
            <rect id="Rectangle_42" data-name="Rectangle 42" width="5.5" height="2021.492" transform="translate(5192.038 379.5)" fill="#fff"/>
          </g>
          <g id="Group_123" data-name="Group 123">
            <rect id="Rectangle_43" data-name="Rectangle 43" width="5.5" height="2021.492" transform="translate(5260.654 379.5)" fill="#fff"/>
          </g>
          <g id="Group_124" data-name="Group 124">
            <rect id="Rectangle_44" data-name="Rectangle 44" width="5.5" height="2021.492" transform="translate(5329.269 379.5)" fill="#fff"/>
          </g>
          <g id="Group_125" data-name="Group 125">
            <rect id="Rectangle_45" data-name="Rectangle 45" width="5.5" height="2021.492" transform="translate(5397.884 379.5)" fill="#fff"/>
          </g>
        </g>
        <g id="Group_157" data-name="Group 157">
          <g id="Group_127" data-name="Group 127">
            <rect id="Rectangle_46" data-name="Rectangle 46" width="2255.018" height="5.5" transform="translate(3201.762 1043.973)" fill="#fff"/>
          </g>
          <g id="Group_128" data-name="Group 128">
            <rect id="Rectangle_47" data-name="Rectangle 47" width="2255.018" height="5.5" transform="translate(3201.762 976.378)" fill="#fff"/>
          </g>
          <g id="Group_129" data-name="Group 129">
            <rect id="Rectangle_48" data-name="Rectangle 48" width="2255.018" height="5.5" transform="translate(3201.762 908.784)" fill="#fff"/>
          </g>
          <g id="Group_130" data-name="Group 130">
            <rect id="Rectangle_49" data-name="Rectangle 49" width="2255.018" height="5.5" transform="translate(3201.762 841.189)" fill="#fff"/>
          </g>
          <g id="Group_131" data-name="Group 131">
            <rect id="Rectangle_50" data-name="Rectangle 50" width="2255.018" height="5.5" transform="translate(3201.762 773.594)" fill="#fff"/>
          </g>
          <g id="Group_132" data-name="Group 132">
            <rect id="Rectangle_51" data-name="Rectangle 51" width="2255.018" height="5.5" transform="translate(3201.762 706)" fill="#fff"/>
          </g>
          <g id="Group_133" data-name="Group 133">
            <rect id="Rectangle_52" data-name="Rectangle 52" width="2255.018" height="5.5" transform="translate(3201.762 638.406)" fill="#fff"/>
          </g>
          <g id="Group_134" data-name="Group 134">
            <rect id="Rectangle_53" data-name="Rectangle 53" width="2255.018" height="5.5" transform="translate(3201.762 570.811)" fill="#fff"/>
          </g>
          <g id="Group_135" data-name="Group 135">
            <rect id="Rectangle_54" data-name="Rectangle 54" width="2255.018" height="5.5" transform="translate(3201.762 503.217)" fill="#fff"/>
          </g>
          <g id="Group_136" data-name="Group 136">
            <rect id="Rectangle_55" data-name="Rectangle 55" width="2255.018" height="5.5" transform="translate(3201.762 435.622)" fill="#fff"/>
          </g>
          <g id="Group_137" data-name="Group 137">
            <rect id="Rectangle_56" data-name="Rectangle 56" width="2255.018" height="5.5" transform="translate(3201.762 1719.918)" fill="#fff"/>
          </g>
          <g id="Group_138" data-name="Group 138">
            <rect id="Rectangle_57" data-name="Rectangle 57" width="2255.018" height="5.5" transform="translate(3201.762 1652.323)" fill="#fff"/>
          </g>
          <g id="Group_139" data-name="Group 139">
            <rect id="Rectangle_58" data-name="Rectangle 58" width="2255.018" height="5.5" transform="translate(3201.762 1584.729)" fill="#fff"/>
          </g>
          <g id="Group_140" data-name="Group 140">
            <rect id="Rectangle_59" data-name="Rectangle 59" width="2255.018" height="5.5" transform="translate(3201.762 1517.134)" fill="#fff"/>
          </g>
          <g id="Group_141" data-name="Group 141">
            <rect id="Rectangle_60" data-name="Rectangle 60" width="2255.018" height="5.5" transform="translate(3201.762 1449.54)" fill="#fff"/>
          </g>
          <g id="Group_142" data-name="Group 142">
            <rect id="Rectangle_61" data-name="Rectangle 61" width="2255.018" height="5.5" transform="translate(3201.762 1381.945)" fill="#fff"/>
          </g>
          <g id="Group_143" data-name="Group 143">
            <rect id="Rectangle_62" data-name="Rectangle 62" width="2255.018" height="5.5" transform="translate(3201.762 1314.351)" fill="#fff"/>
          </g>
          <g id="Group_144" data-name="Group 144">
            <rect id="Rectangle_63" data-name="Rectangle 63" width="2255.018" height="5.5" transform="translate(3201.762 1246.756)" fill="#fff"/>
          </g>
          <g id="Group_145" data-name="Group 145">
            <rect id="Rectangle_64" data-name="Rectangle 64" width="2255.018" height="5.5" transform="translate(3201.762 1179.162)" fill="#fff"/>
          </g>
          <g id="Group_146" data-name="Group 146">
            <rect id="Rectangle_65" data-name="Rectangle 65" width="2255.018" height="5.5" transform="translate(3201.762 1111.567)" fill="#fff"/>
          </g>
          <g id="Group_147" data-name="Group 147">
            <rect id="Rectangle_66" data-name="Rectangle 66" width="2255.018" height="5.5" transform="translate(3201.762 2395.863)" fill="#fff"/>
          </g>
          <g id="Group_148" data-name="Group 148">
            <rect id="Rectangle_67" data-name="Rectangle 67" width="2255.018" height="5.5" transform="translate(3201.762 2328.268)" fill="#fff"/>
          </g>
          <g id="Group_149" data-name="Group 149">
            <rect id="Rectangle_68" data-name="Rectangle 68" width="2255.018" height="5.5" transform="translate(3201.762 2260.674)" fill="#fff"/>
          </g>
          <g id="Group_150" data-name="Group 150">
            <rect id="Rectangle_69" data-name="Rectangle 69" width="2255.018" height="5.5" transform="translate(3201.762 2193.08)" fill="#fff"/>
          </g>
          <g id="Group_151" data-name="Group 151">
            <rect id="Rectangle_70" data-name="Rectangle 70" width="2255.018" height="5.5" transform="translate(3201.762 2125.485)" fill="#fff"/>
          </g>
          <g id="Group_152" data-name="Group 152">
            <rect id="Rectangle_71" data-name="Rectangle 71" width="2255.018" height="5.5" transform="translate(3201.762 2057.891)" fill="#fff"/>
          </g>
          <g id="Group_153" data-name="Group 153">
            <rect id="Rectangle_72" data-name="Rectangle 72" width="2255.018" height="5.5" transform="translate(3201.762 1990.296)" fill="#fff"/>
          </g>
          <g id="Group_154" data-name="Group 154">
            <rect id="Rectangle_73" data-name="Rectangle 73" width="2255.018" height="5.5" transform="translate(3201.762 1922.701)" fill="#fff"/>
          </g>
          <g id="Group_155" data-name="Group 155">
            <rect id="Rectangle_74" data-name="Rectangle 74" width="2255.018" height="5.5" transform="translate(3201.762 1855.107)" fill="#fff"/>
          </g>
          <g id="Group_156" data-name="Group 156">
            <rect id="Rectangle_75" data-name="Rectangle 75" width="2255.018" height="5.5" transform="translate(3201.762 1787.512)" fill="#fff"/>
          </g>
        </g>
      </g>
      <g id="Group_159" data-name="Group 159">
        <rect id="Rectangle_76" data-name="Rectangle 76" width="7.7" height="2021.492" transform="translate(3947.988 388.79)" fill="#fff"/>
      </g>
    </g>
    <g id="Group_176" data-name="Group 176">
      <ellipse id="Ellipse_1" data-name="Ellipse 1" cx="391.951" cy="21.435" rx="391.951" ry="21.435" transform="translate(2700.694 2938.467)" fill="#670808" style="mix-blend-mode: multiply;isolation: isolate"/>
      <path id="Path_90" data-name="Path 90" d="M2711.466,1398.993c-.081,10.451-62.694,407.9-62.694,407.9H2462.706s-45.037-204.432-37.68-272.954c10-93.027,63.054-162.233,63.054-162.233l138.828-17.681S2711.571,1383.606,2711.466,1398.993Z" fill="#fff"/>
      <path id="Path_91" data-name="Path 91" d="M3053.2,2065.225c-6.918,13.069-23.834,43.831-26.139,38.443s-12.305-84.569-26.916-85.345c-7.079-.371-6.615,26.127-6.152,34.608.776,13.835-15.375,19.222-15.375,19.222s-9.223-54.305-6.917-65.834,8.458-35.663,8.458-35.663-106.873-272.941-112.261-276.024-86.111-51.2-116.861-81.5c-26.023-25.641-49.984-45.906-69.206-37.181-.359.162-.753.324-1.182.475-6.511,2.34-19.534,2.827-34.574,0a118.72,118.72,0,0,1-34.087-11.888,90.3,90.3,0,0,1-30.542-26.035c-9.987-13.66-16.5-31.5-16.5-54.537,0-76.32,45.859-87.651,65.371-96.11,23.068-10,58.442-6.928,84.581,11.529s52.278,61.512,52.278,61.512,169.926,103.027,200.677,160.693c15.051,28.213,53.054,332.924,53.054,332.924s33.832,36.127,38.444,52.278S3060.114,2052.155,3053.2,2065.225Z" fill="#8d493e"/>
      <g id="Group_161" data-name="Group 161">
        <path id="Path_92" data-name="Path 92" d="M2764.08,2700.683l-47.643,22.7c-173.774-374.439-243.732-402.119-253.731-423.647-5.944-12.8-5.91-46.659-4.9-71.975.684-17.241,1.819-30.518,1.819-30.518l171.5,2.352-4,30.229-6.8,51.455s28.955,9.362,66.889,61.512C2736.423,2410.454,2764.08,2700.683,2764.08,2700.683Z" fill="#8d493e"/>
        <path id="Path_93" data-name="Path 93" d="M2631.126,2199.593l-4,20.959-168.166-2.062c.684-17.241.66-21.249.66-21.249Z" fill="#7e403e"/>
      </g>
      <path id="Path_94" data-name="Path 94" d="M2841.756,2175.18l-75.845,13.915L2732,2195.317l-43.785,8.041-33.9,6.222-55.51,10.184s-5.84-6.766-15.12-20.195c-33.01-47.817-109.562-180.169-120.974-392.675h186.066s56.947,21.527,104.614,106.1C2798.642,1993.273,2841.756,2175.18,2841.756,2175.18Z" fill="#fff"/>
      <path id="Path_95" data-name="Path 95" d="M2583.691,2199.593l-152.512-2.885,31.527-389.814c11.412,212.506,87.964,344.858,120.974,392.675Z" fill="#396b87"/>
      <g id="Group_162" data-name="Group 162">
        <path id="Path_96" data-name="Path 96" d="M2688.212,2203.358l-33.9,6.222-115.9-402.687h34.562Z" fill="#ff576a"/>
        <path id="Path_97" data-name="Path 97" d="M2765.911,2189.1,2732,2195.317l-118.761-388.424h34.7Z" fill="#ff576a"/>
        <path id="Path_98" data-name="Path 98" d="M2572.985,1806.894h40.53L2732,2195.317l-43.785,8.041Z" fill="#396b87"/>
        <rect id="Rectangle_77" data-name="Rectangle 77" width="200.288" height="24.447" rx="7.718" transform="translate(2457.293 1782.446)" fill="#ff576a"/>
      </g>
      <path id="Path_99" data-name="Path 99" d="M2685.771,789.354s29.123,3.4,36.812,12.624,45.363,57.665,51.514,97.646c1.885,12.254-63.047,175.3-92.264,219.9s-65.354,234.505-65.354,234.505l-128.4,17.684s54.208-224.137,107.973-291.177c42.725-53.276,125.763-183.983,125.763-183.983S2732,825.938,2685.771,789.354Z" fill="#7e403e"/>
      <g id="Group_163" data-name="Group 163">
        <path id="Path_100" data-name="Path 100" d="M2631.127,2213.832s37.635,73.6,70.7,82.825,279.868,61.509,528.212,169.151v-62.343s-181-173.088-266.029-193.29c-76.117-18.084-140.7-10.582-140.7-10.582l-10.153-19.164Z" fill="#8d493e"/>
        <path id="Path_101" data-name="Path 101" d="M2631.127,2213.832l182.025-33.4,10.153,19.164-181.064,33.821Z" fill="#7e403e"/>
      </g>
      <g id="Group_164" data-name="Group 164">
        <path id="Path_102" data-name="Path 102" d="M2487.577,1372.578c10.6-31.522,7.368-48.155,13.708-63.52,15.6-37.688,16.055-85.949,16.055-85.949l76.653-16.917c15.409,58.751,5.984,123.965,38.9,150.689Z" fill="#8d493e"/>
        <path id="Path_103" data-name="Path 103" d="M2465.645,1257.274c-4.1-9.269-19.613-19.558-19.613-19.558s-.8.718-2.116,1.938c2.014-6.948,4.7-14.339,7.707-21.986,2.92,1.72,19.408,11.916,24.521,19.579C2481.775,1245.614,2469.737,1266.506,2465.645,1257.274Z" fill="#fff"/>
        <path id="Path_104" data-name="Path 104" d="M2579.949,1266.175s-24.925,23.485-30.959,35.348c-6,11.822-10.289,15.516-47.535,11.234-37.242-4.244-71.721-28.115-79.718-37.124-6.731-7.62,15.191-29.346,22.179-35.979,1.317-1.22,2.116-1.938,2.116-1.938s15.517,10.289,19.613,19.558c4.092,9.232,16.13-11.66,10.5-20.027-5.113-7.663-21.6-17.859-24.521-19.579-.283-.2-.444-.3-.444-.3l2.669-5.238.029-.078,1.908-3.731s12.588,4.154,21.233,13.629c8.607,9.478,13.773,18.495,15.938,29.27,2.161,10.738-1.273,13.1,9.3,21.074,10.535,7.935,36.8-6.281,43.871-18.356,1.268-2.121,2.726-4.639,4.274-7.392a7.083,7.083,0,0,0,.489,1.954c2.559,6.624,12.077,9.071,21.286,5.509s14.572-11.775,12.012-18.4c-2.556-6.586-12.074-9.033-21.244-5.475a24.378,24.378,0,0,0-5.914,3.284c4.01-9.366,5.878-18.226.247-21.461-10.107-5.825-18.313-10.322-7.972-17.428,10.3-7.137,17.612-26.52,2.968-26.929-14.193-.414-42.156,6.719-59.959-17.2-.561-.739-1.089-1.519-1.616-2.3-17.691-26.686,36.067-68.3,53.758-41.608,12.263,18.488,54.686,10.235,66.548,44.235,11.9,34,2.624,32.509,17.3,52.5C2642.978,1223.263,2579.949,1266.175,2579.949,1266.175Z" fill="#44293e"/>
        <path id="Path_105" data-name="Path 105" d="M2572.179,1254.012c-9.209,3.562-18.727,1.115-21.286-5.509a7.083,7.083,0,0,1-.489-1.954c-1.548,2.753-3.006,5.271-4.274,7.392-7.071,12.075-33.336,26.291-43.871,18.356-10.576-7.969-7.142-10.336-9.3-21.074-2.165-10.775-7.331-19.792-15.938-29.27-8.645-9.475-21.233-13.629-21.233-13.629l-1.908,3.731c2.815-6.874,5.8-13.954,8.772-21.107a102.739,102.739,0,0,1,29.668-40.546c17.8,23.921,45.766,16.788,59.959,17.2,14.644.409,7.33,19.792-2.968,26.929-10.341,7.106-2.135,11.6,7.972,17.428,5.631,3.235,3.763,12.095-.247,21.461a24.378,24.378,0,0,1,5.914-3.284c9.17-3.558,18.688-1.111,21.244,5.475C2586.751,1242.237,2581.385,1250.451,2572.179,1254.012Z" fill="#8d493e"/>
      </g>
      <g id="Group_165" data-name="Group 165">
        <path id="Path_106" data-name="Path 106" d="M2725.254,874.162c0,1.495-.023,2.978-.093,4.45A120.984,120.984,0,0,1,2663.012,980a117.932,117.932,0,0,1-13.869,6.616A121.241,121.241,0,0,1,2518.3,959.554a118.971,118.971,0,0,1-9.605-10.891,120.542,120.542,0,0,1-13.3-21.238,117.8,117.8,0,0,1-7.334-18.77,120.641,120.641,0,0,1-4.994-34.493q0-5.3.452-10.474a119.714,119.714,0,0,1,2.074-14.251,120.962,120.962,0,0,1,38-65.672,118.936,118.936,0,0,1,12.282-9.617,121.345,121.345,0,0,1,95.634-17.982h.012a119.6,119.6,0,0,1,23.2,7.925,121.118,121.118,0,0,1,62.937,67.769,119.756,119.756,0,0,1,7.219,32.639Q2725.254,869.278,2725.254,874.162Z" fill="#ff576a"/>
        <path id="Path_107" data-name="Path 107" d="M2725.254,874.162c0,1.495-.023,2.978-.093,4.45a200.236,200.236,0,0,1-31.886,2.5c-30.425,0-59.137-6.6-80.85-18.608-13.266-7.322-23.091-16.2-29.035-26a152.766,152.766,0,0,0-23.741,11.135A363.846,363.846,0,0,0,2663.012,980a117.932,117.932,0,0,1-13.869,6.616A377.321,377.321,0,0,1,2547.877,855.3a134.75,134.75,0,0,0-15.444,13.046c9.292,13.556,10.659,32.72,3.73,54.792a143.831,143.831,0,0,1-17.866,36.416,118.971,118.971,0,0,1-9.605-10.891c16.719-26.521,22.559-53.24,13.938-69.669-11.32,13.66-20.438,29.847-27.239,48.431a117.8,117.8,0,0,1-7.334-18.77,169.6,169.6,0,0,1,25.177-39.973c-5.77-3.754-13.1-5.55-21.446-5.55a64.273,64.273,0,0,0-8.273.556,119.714,119.714,0,0,1,2.074-14.251c14.877-1.193,27.633,1.854,37.25,8.956a151.732,151.732,0,0,1,19.361-16.012,342.66,342.66,0,0,1-18.608-58.616,118.936,118.936,0,0,1,12.282-9.617,321.234,321.234,0,0,0,18.26,60.713,163.342,163.342,0,0,1,23.857-11.146,41.215,41.215,0,0,1-1.252-10.1c0-18.817,12.676-36.185,35.686-48.9a130.981,130.981,0,0,1,19.083-8.551h.012a119.6,119.6,0,0,1,23.2,7.925c-37.181,8.146-64.073,27.553-64.073,49.521a26.954,26.954,0,0,0,.614,5.7,208.81,208.81,0,0,1,33.23-6.7c35.211-4.264,67.329-.1,85.96,3.465a120.624,120.624,0,0,1,7.206,15.78c-13.822-3.232-51.154-10.416-91.892-5.4a196.561,196.561,0,0,0-28.583,5.608c14.749,20.288,52.811,35.142,96.1,35.142a182.792,182.792,0,0,0,31.6-2.712Q2725.254,869.278,2725.254,874.162Z" fill="#20364c"/>
      </g>
      <g id="Group_170" data-name="Group 170">
        <path id="Path_108" data-name="Path 108" d="M2795.375,2804.149c-6.094,18.423-7.971,55.986-19.882,68.21s-64.826,50.633-64.826,50.633a44.693,44.693,0,0,1-11.517-13.754c.776.939,1.251,1.426,1.251,1.426s52.9-38.4,64.815-50.622,13.788-49.8,19.894-68.221c4.379-13.22,39.475-45.65,36.9-64.745-.974-7.253-4.3-13.671-8.911-19.279,9.606,6.94,17.565,16.174,19.176,28.132C2834.862,2755.023,2799.755,2790.929,2795.375,2804.149Z" fill="#fff"/>
        <path id="Path_109" data-name="Path 109" d="M2785.11,2791.821c-6.106,18.423-7.983,55.986-19.894,68.221s-64.815,50.622-64.815,50.622-.475-.487-1.251-1.426c-4.542-5.561-19.234-26.822-3.685-54.236,18.886-33.276,17.878-138.828,17.878-138.828l49.127-38.375s33.844,9.594,50.632,30c4.612,5.608,7.937,12.026,8.911,19.279C2824.585,2746.171,2789.489,2778.6,2785.11,2791.821Z" fill="#44293e"/>
        <g id="Group_169" data-name="Group 169">
          <g id="Group_166" data-name="Group 166">
            <path id="Path_110" data-name="Path 110" d="M2714.985,2761.631l25.641-3.125a4.055,4.055,0,0,0-.982-8.051L2714,2753.581a4.055,4.055,0,1,0,.982,8.05Z" fill="#fff"/>
          </g>
          <g id="Group_167" data-name="Group 167">
            <path id="Path_111" data-name="Path 111" d="M2712.485,2779.158l25.641-3.125a4.055,4.055,0,1,0-.982-8.051l-25.641,3.125a4.055,4.055,0,0,0,.982,8.051Z" fill="#fff"/>
          </g>
          <g id="Group_168" data-name="Group 168">
            <path id="Path_112" data-name="Path 112" d="M2711.132,2797.714l25.641-3.126a4.055,4.055,0,1,0-.981-8.051l-25.641,3.126a4.055,4.055,0,0,0,.981,8.051Z" fill="#fff"/>
          </g>
        </g>
      </g>
      <g id="Group_175" data-name="Group 175">
        <path id="Path_113" data-name="Path 113" d="M3388.566,2595.721a37.1,37.1,0,0,1-13.2-.463c.209-5.863,2.178-65.7-.012-81.778-2.317-16.915-30.762-41.525-41.525-57.665-7.728-11.587-11.68-59.218-28.306-68.939a36.66,36.66,0,0,0-16.6-4.785c10.311-1.993,20.843-1.623,29.811,3.626,16.639,9.721,20.59,58.511,28.318,70.1,10.764,16.14,39.208,40.75,41.514,57.665S3388.566,2595.721,3388.566,2595.721Z" fill="#fff"/>
        <path id="Path_114" data-name="Path 114" d="M3375.369,2595.258c-.012.3-.012.463-.012.463s-32.847,3.662-46.9-30.368c-14.61-35.373-98.415-99.55-98.415-99.55v-62.336s31.411-22.975,58.883-21.376a36.66,36.66,0,0,1,16.6,4.785c16.626,9.721,20.578,57.352,28.306,68.939,10.763,16.14,39.208,40.75,41.525,57.665C3377.547,2529.563,3375.578,2589.4,3375.369,2595.258Z" fill="#44293e"/>
        <g id="Group_174" data-name="Group 174">
          <g id="Group_171" data-name="Group 171">
            <path id="Path_115" data-name="Path 115" d="M3280.164,2473.55l-20.316,15.952a4.055,4.055,0,0,1-5.009-6.379l20.316-15.952a4.055,4.055,0,1,1,5.009,6.379Z" fill="#fff"/>
          </g>
          <g id="Group_172" data-name="Group 172">
            <path id="Path_116" data-name="Path 116" d="M3294.342,2484.153l-20.317,15.953a4.055,4.055,0,0,1-5.008-6.379l20.316-15.953a4.055,4.055,0,1,1,5.009,6.379Z" fill="#fff"/>
          </g>
          <g id="Group_173" data-name="Group 173">
            <path id="Path_117" data-name="Path 117" d="M3308.438,2496.295l-20.316,15.953a4.055,4.055,0,0,1-5.009-6.379l20.316-15.953a4.055,4.055,0,1,1,5.009,6.379Z" fill="#fff"/>
          </g>
        </g>
      </g>
    </g>
    <g id="Group_190" data-name="Group 190">
      <ellipse id="Ellipse_2" data-name="Ellipse 2" cx="391.951" cy="21.435" rx="391.951" ry="21.435" transform="translate(741.284 2848.386)" fill="#5b0a0a" style="mix-blend-mode: multiply;isolation: isolate"/>
      <g id="Group_178" data-name="Group 178">
        <path id="Path_118" data-name="Path 118" d="M1714.929,2283.965l-219.123-15.48s-94.58-237.5-.012-391.818l.012-.012,209.9-13.614S1741.45,2078.665,1714.929,2283.965Z" fill="#fdb735"/>
        <path id="Path_119" data-name="Path 119" d="M1495.806,2268.485l-83.04-11.018c-38.954-256.6,81.406-379.155,83.028-380.8C1401.226,2030.987,1495.806,2268.485,1495.806,2268.485Z" fill="#eaa12c"/>
        <path id="Path_120" data-name="Path 120" d="M1705.311,1864.756l-209.517,11.911-8.633,15.313,220.844-13.612Z" fill="#ccc" style="mix-blend-mode: multiply;isolation: isolate"/>
        <g id="Group_177" data-name="Group 177">
          <path id="Path_121" data-name="Path 121" d="M1668.513,2279.794q-7.576-2.329-15.294-4.368l-20.647-406.591,15.039-.765Z" fill="#fff"/>
          <path id="Path_122" data-name="Path 122" d="M1614.254,1870.387l20.45,400.52q-7.578-1.7-15.236-3.152l-20.253-396.6Z" fill="#fff"/>
        </g>
      </g>
      <path id="Path_123" data-name="Path 123" d="M1736.838,1571.121l-7.158,262.52a32.042,32.042,0,0,1-30.162,31.115l-203.712,11.9s-58.871-114.636-83.422-223.641c-12.78-56.727-16.268-111.937,2.688-148.654l4.136-1.448,230.616-80.8Z" fill="#fdb735"/>
      <path id="Path_124" data-name="Path 124" d="M1672.3,2280.952s-21.956,95.311-56.553,99.922-283.717-17.31-490.153,5.747v-69.183s273.938-91.88,493.872-49.683q7.665,1.461,15.236,3.152,9.333,2.085,18.515,4.519,7.718,2.05,15.294,4.368C1669.776,2280.165,1671.039,2280.558,1672.3,2280.952Z" fill="#8d493e"/>
      <path id="Path_125" data-name="Path 125" d="M1589.245,2380.35s-303.345,307.3-328.718,353.43l-56.512-8.111s96.565-349.592,223.75-349.733Z" fill="#7e403e"/>
      <path id="Path_126" data-name="Path 126" d="M1635.35,1447.848s12.3-39.6,67.751-71.951c54.159-31.6,261.915-109.2,261.915-109.2s97.466-189.516,168.168-252.251c68.619-60.888,116.943-70.553,133.373-70.553s30.928,6.765,30.928,6.765-5.8,10.632-24.162,17.4-27.062,45.425-46.391,54.123-60.7,12.575-60.7,12.575-82.983,254.75-122.149,303.062c-64.573,79.652-261.68,158.377-287.818,175.311-19.428,12.586-19.428,58-19.428,58S1614.965,1577.018,1635.35,1447.848Z" fill="#8d493e"/>
      <g id="Group_179" data-name="Group 179">
        <path id="Path_127" data-name="Path 127" d="M1487.072,1324.753c-1.577,42.78-23.091,78.059-64.008,105.052-23.094-8.642-49-25.33-54.273-65.636-8.682-66.483,38.6-107.887,78.013-107.985a102.86,102.86,0,0,1,27.909,4.227A151.884,151.884,0,0,1,1487.072,1324.753Z" fill="#44293e"/>
        <path id="Path_128" data-name="Path 128" d="M1551.687,1420.019l5.745,36.087-89.634,28.925s6.042-36.378-9.717-44.272a26.931,26.931,0,0,0-3.179-1.315c-7.072-2.516-19.02-4.85-31.838-9.639,40.917-26.993,62.431-62.272,64.008-105.052a151.884,151.884,0,0,0-12.359-64.342,175.893,175.893,0,0,1,32.853,13.338c15.7,8.2,27.44,17.071,31.065,20.738,28.023,28.329,38.856,93.915,39.559,105.421S1551.687,1420.019,1551.687,1420.019Z" fill="#8d493e"/>
        <path id="Path_129" data-name="Path 129" d="M1513.745,1324.528c-.964,33.049-12.747,77.311-58.843,114.916-7.072-2.516-19.02-4.85-31.838-9.639,40.917-26.993,62.431-62.272,64.008-105.052a151.884,151.884,0,0,0-12.359-64.342,175.893,175.893,0,0,1,32.853,13.338A176.316,176.316,0,0,1,1513.745,1324.528Z" fill="#fdb735"/>
      </g>
      <path id="Path_130" data-name="Path 130" d="M1419.22,1502.645l-.012.267-4.136,1.448c-18.956,36.717-15.468,91.927-2.688,148.654l-.047,1.043c-35.9,23.995-149.708,63.088-155.571,65.092s-153.891,252.411-153.891,252.411,1.518,24.853,1.622,36.613-19.141,63.366-19.141,63.366-14.853-8.319-11.505-21.771c2.051-8.238,7.473-34.18.452-35.141-14.495-1.982-39.162,73.933-42.441,78.787s-14.124-28.525-18.469-42.661-2.642-43.553,4.913-58.546,47.562-44.156,47.562-44.156,17.438-199.565,102.934-313.587C1208.01,1582.175,1419.22,1502.645,1419.22,1502.645Z" fill="#7e403e"/>
      <g id="Group_184" data-name="Group 184">
        <path id="Path_131" data-name="Path 131" d="M1342.923,2878.291h-91.707a29.315,29.315,0,0,1-26.255-16.244c-6.546-13.116-15.653-32.929-21.3-40.669-20.762-28.444-55.429-39.162-55.36-61.5.024-5.678,3.766-11.6,9.3-17.253-3.163,3.8-4.993,7.578-4.7,11.1,1.541,18.446,34.6,33.056,55.36,61.5,5.643,7.74,14.75,25.247,21.3,38.351a29.327,29.327,0,0,0,26.255,16.244h87.061A37.2,37.2,0,0,1,1342.923,2878.291Z" fill="#fff"/>
        <path id="Path_132" data-name="Path 132" d="M1342.888,2869.821h-87.072a29.327,29.327,0,0,1-26.255-16.244c-6.546-13.1-15.653-30.611-21.3-38.351-20.763-28.445-53.819-43.055-55.36-61.5-.289-3.522,1.541-7.3,4.7-11.1,13.394-16.116,50.656-32.731,50.656-32.731l53.437,19.222,18.214,76.227a25.4,25.4,0,0,0,20.809,18.77C1347.523,2831.413,1342.888,2869.821,1342.888,2869.821Z" fill="#20364c"/>
        <g id="Group_183" data-name="Group 183">
          <g id="Group_180" data-name="Group 180">
            <path id="Path_133" data-name="Path 133" d="M1269.176,2767.127h-25.831a4.055,4.055,0,0,1,0-8.11h25.831a4.055,4.055,0,0,1,0,8.11Z" fill="#fff"/>
          </g>
          <g id="Group_181" data-name="Group 181">
            <path id="Path_134" data-name="Path 134" d="M1273.778,2784.223h-25.831a4.055,4.055,0,0,1,0-8.111h25.831a4.055,4.055,0,1,1,0,8.111Z" fill="#fff"/>
          </g>
          <g id="Group_182" data-name="Group 182">
            <path id="Path_135" data-name="Path 135" d="M1277.366,2802.478h-25.83a4.055,4.055,0,1,1,0-8.11h25.83a4.055,4.055,0,1,1,0,8.11Z" fill="#fff"/>
          </g>
        </g>
      </g>
      <g id="Group_189" data-name="Group 189">
        <path id="Path_136" data-name="Path 136" d="M1045.163,2277.72a22.036,22.036,0,0,0-4.913.51c-25.374,5.758-18.457,71.5-20.762,97.708s-19.6,57.979-28.839,81.047,0,68.047,0,68.047h.035a39.625,39.625,0,0,1-12.467,2.318s-9.223-47.3,0-70.365,26.533-54.838,28.838-81.047-3.951-89.563,20.752-97.708C1032.939,2276.538,1038.872,2276.55,1045.163,2277.72Z" fill="#fff"/>
        <path id="Path_137" data-name="Path 137" d="M1125.6,2317.438v69.183s-49.6,43.843-77.281,79.6c-27.657,35.733-28.827,57.632-57.631,58.813h-.035s-9.223-44.978,0-68.047,26.533-54.838,28.839-81.047-4.612-91.95,20.762-97.708a22.036,22.036,0,0,1,4.913-.51C1072.588,2277.685,1125.6,2317.438,1125.6,2317.438Z" fill="#20364c"/>
        <g id="Group_188" data-name="Group 188">
          <g id="Group_185" data-name="Group 185">
            <path id="Path_138" data-name="Path 138" d="M1093.931,2413.552l-13.72-21.886a4.055,4.055,0,0,1,6.872-4.307l13.72,21.886a4.055,4.055,0,1,1-6.872,4.307Z" fill="#fff"/>
          </g>
          <g id="Group_186" data-name="Group 186">
            <path id="Path_139" data-name="Path 139" d="M1081.891,2426.532l-13.72-21.886a4.055,4.055,0,1,1,6.872-4.308l13.72,21.886a4.055,4.055,0,0,1-6.872,4.308Z" fill="#fff"/>
          </g>
          <g id="Group_187" data-name="Group 187">
            <path id="Path_140" data-name="Path 140" d="M1068.329,2439.268l-13.72-21.886a4.055,4.055,0,0,1,6.872-4.307l13.72,21.886a4.055,4.055,0,0,1-6.872,4.307Z" fill="#fff"/>
          </g>
        </g>
      </g>
    </g>
  </g>
</svg>
