<svg xmlns="http://www.w3.org/2000/svg" xmlns:xlink="http://www.w3.org/1999/xlink" width="1920" height="1080" viewBox="0 0 1920 1080">
  <defs>
    <clipPath id="clip-Web_1920_1">
      <rect width="1920" height="1080"/>
    </clipPath>
  </defs>
  <g id="Web_1920_1" data-name="Web 1920 – 1" clip-path="url(#clip-Web_1920_1)">
    <rect width="1920" height="1080" fill="#fff"/>
    <g id="Path_1" data-name="Path 1" transform="translate(-74 -108)" fill="#771a12" style="mix-blend-mode: darken;isolation: isolate">
      <path d="M 2010.5 1322.5 L 0.5 1322.5 L 0.5 0.5 L 2010.5 0.5 L 2010.5 1322.5 Z" stroke="none"/>
      <path d="M 1 1 L 1 1322 L 2010 1322 L 2010 1 L 1 1 M 0 0 L 2011 0 L 2011 1323 L 0 1323 L 0 0 Z" stroke="none" fill="#707070"/>
    </g>
    <g id="Group_1" data-name="Group 1">
      <path id="wave" d="M0,240.78l66.5,5.763c66.5,6.2,199.512,17.072,332.52-23.162S665.04,89.632,798.048,78.432c133.008-11.635,266.016,57.958,399.024,92.755s266.016,34.8,399.024,46.432c133.008,11.2,266.016,35.123,399.024,5.763s266.016-109.827,332.52-150.822l66.5-40.56V345.171H0Z" transform="translate(-143 734.829)" fill="#fff"/>
      <path id="wave-2" data-name="wave" d="M0,117.691l75.615-4.731c75.615-5.088,226.846-14.014,378.076,19.013S756.152,241.764,907.382,250.958c151.23,9.551,302.461-47.576,453.691-76.14s302.46-28.564,453.691-38.115c151.231-9.194,302.461-28.831,453.691-4.731s302.461,90.154,378.076,123.806l75.615,33.294V32H0Z" transform="translate(587.854 -101.512)" fill="#fff"/>
      <path id="wave-3" data-name="wave" d="M3005.92,173.122l-83.5-7.791c-83.5-8.379-250.493-23.079-417.489,31.311S2170.943,377.455,2003.947,392.6c-167,15.729-333.991-78.352-500.987-125.393s-333.991-47.041-500.986-62.77c-167-15.141-333.991-47.482-500.987-7.791S167,345.114,83.5,400.534L0,455.366V32H3005.92Z" transform="translate(-1888.033 -139.512)" fill="#fff"/>
    </g>
  </g>
</svg>
